<?xml version="1.0" standalone="no"?>
<!DOCTYPE svg PUBLIC "-//W3C//DTD SVG 1.1//EN" "http://www.w3.org/Graphics/SVG/1.1/DTD/svg11.dtd" >
<svg xmlns="http://www.w3.org/2000/svg">
<metadata></metadata>
<defs>
<font id="uvn_anh_sangregular" horiz-adv-x="487" >
<font-face units-per-em="2048" ascent="1638" descent="-410" />
<missing-glyph horiz-adv-x="274" />
<glyph unicode="&#xd;" horiz-adv-x="274" />
<glyph unicode=" "  horiz-adv-x="274" />
<glyph unicode="&#x09;" horiz-adv-x="274" />
<glyph unicode="&#xa0;" horiz-adv-x="274" />
<glyph unicode="!" horiz-adv-x="303" d="M57 223h189v-223h-189v223zM57 1399h189l-29 -1092h-131z" />
<glyph unicode="&#x22;" horiz-adv-x="614" d="M524 1436v-555h-139v555h139zM229 1436v-555h-139v555h139z" />
<glyph unicode="#" horiz-adv-x="1575" d="M969 858h-260l-93 -264h261zM924 1458l-162 -454h256l164 454h164l-160 -454h301l-51 -146h-303l-93 -262h322l-51 -147h-322l-162 -453h-165l161 453h-258l-162 -453h-165l159 453h-309l53 147h310l92 262h-330l51 146h332l162 454h166z" />
<glyph unicode="$" horiz-adv-x="541" d="M223 -123v123q-113 35 -150 129q-24 63 -24 207v190h189v-262q0 -98 41 -98q40 0 40 98v117q0 109 -29 173q-26 56 -108 140q-85 87 -115 153q-32 72 -32 187v72q0 239 188 262v115h92v-115q115 -20 155 -124q26 -67 26 -210v-104h-191v178q0 98 -39 98q-41 0 -41 -98 v-70q0 -118 100 -220l11 -11q95 -100 127 -158q45 -82 45 -194v-119q0 -148 -28 -218q-43 -111 -165 -118v-123h-92z" />
<glyph unicode="%" horiz-adv-x="711" d="M172 0l270 1370h97l-271 -1370h-96zM535 109q0 -41 20 -41q23 0 23 30v482q0 55 -23 55q-20 0 -20 -27v-499zM426 541q0 88 22 128q29 54 109 54t109 -54q20 -38 20 -128v-377q0 -90 -20 -128q-29 -54 -109 -54t-109 54q-22 40 -22 128v377zM133 776q0 -41 21 -41 q22 0 22 31v481q0 56 -22 56q-21 -2 -21 -29v-498zM25 1206q0 90 20 129q29 54 109 54t109 -54q22 -40 22 -129v-377q0 -89 -22 -128q-29 -54 -109 -54t-108 54q-21 39 -21 128v377z" />
<glyph unicode="&#x26;" horiz-adv-x="588" d="M205 633q-35 -86 -35 -176q0 -137 2 -161q11 -132 57 -132q44 0 51 202q0 9 1 25q-49 140 -76 242zM424 0l-47 123q-27 -141 -162 -141q-197 0 -197 319v143q0 222 117 414q-49 178 -49 301q0 258 199 258q90 0 137 -62q43 -56 43 -149q0 -201 -148 -397l56 -170 q40 153 119 197l98 -125q-123 -133 -129 -336l131 -375h-168zM258 985q61 107 61 201q0 82 -49 82q-47 0 -47 -76q0 -46 35 -207z" />
<glyph unicode="'" horiz-adv-x="317" d="M229 1436v-555h-139v555h139z" />
<glyph unicode="(" horiz-adv-x="336" d="M217 446q0 -307 100 -421v-144q-274 147 -274 600v336q0 453 274 600v-143q-100 -114 -100 -422v-406z" />
<glyph unicode=")" horiz-adv-x="336" d="M119 852q0 305 -101 422v143q277 -146 277 -600v-336q0 -454 -277 -600v144q101 113 101 421v406z" />
<glyph unicode="*" horiz-adv-x="375" d="M35 1051l76 116l-117 43l31 109l114 -43l-2 141h99l-3 -141l115 43l31 -111l-117 -41l72 -112l-78 -70l-72 115l-69 -115z" />
<glyph unicode="+" horiz-adv-x="1706" d="M924 1221v-541h528v-139h-528v-541h-142v541h-528v139h528v541h142z" />
<glyph unicode="," horiz-adv-x="270" d="M41 223h188v-223l-110 -137l-41 33l45 104h-82v223z" />
<glyph unicode="-" horiz-adv-x="289" d="M33 545v157h223v-157h-223z" />
<glyph unicode="." horiz-adv-x="270" d="M41 223h188v-223h-188v223z" />
<glyph unicode="/" horiz-adv-x="342" d="M-41 -190l295 1589h102l-297 -1589h-100z" />
<glyph unicode="0" horiz-adv-x="541" d="M41 1044q0 165 34 238q51 107 195 107q145 0 196 -107q34 -72 34 -238v-718q0 -164 -35 -237q-51 -107 -195 -107t-194 107q-35 72 -35 237v718zM229 1120v-870q0 -103 41 -103q32 0 39 39q2 9 2 64v870q0 53 -2 64q-8 39 -39 39t-39 -39q-2 -11 -2 -64z" />
<glyph unicode="1" horiz-adv-x="360" d="M162 1370h131v-1370h-184v1110q-52 -35 -119 -51v155q105 42 172 156z" />
<glyph unicode="2" horiz-adv-x="506" d="M283 1137q0 86 -39 86q-31 0 -39 -39q-2 -11 -2 -64v-162h-191v86q0 166 35 238q50 107 195 107t196 -107q35 -72 35 -238v-90q0 -188 -102 -387q-10 -18 -35 -66q-115 -218 -127 -335h274v-166h-452q0 211 10 285q13 95 97 251l35 63q110 197 110 421v117z" />
<glyph unicode="3" horiz-adv-x="541" d="M225 233q0 -86 39 -86q32 0 39 39q2 10 2 64v297q0 94 -35 126q-33 29 -129 29v154h15q83 0 116 30.5t33 112.5v121q0 53 -2 64q-8 39 -39 39q-39 0 -39 -86v-172h-190v79q0 166 34 238q51 107 195 107q232 0 232 -287v-113q0 -179 -84 -209q57 -25 74 -87 q10 -35 10 -120v-247q0 -164 -36 -238q-52 -106 -196 -106t-194 107q-35 72 -35 237v184h190v-277z" />
<glyph unicode="4" horiz-adv-x="551" d="M297 0v262h-264v318q0 529 157 790h293v-942h47v-166h-47v-262h-186zM217 791v-363h80v776q-80 -128 -80 -413z" />
<glyph unicode="5" horiz-adv-x="483" d="M41 1370h403v-166h-243v-257q36 32 104 32q103 0 134 -86q18 -47 18 -176v-391q0 -161 -32 -234q-49 -110 -187 -110q-139 0 -187 110q-31 71 -31 234v182h181v-258q0 -103 37 -103q30 0 37 40q1 8 1 63v471q0 102 -36 102q-41 0 -48 -88h-151v635z" />
<glyph unicode="6" horiz-adv-x="541" d="M229 623v-373q0 -103 41 -103q32 0 39 39q2 9 2 64v373q0 104 -41 104q-32 0 -39 -40q-2 -10 -2 -64zM41 1044q0 165 34 238q51 107 195 107q145 0 196 -107q34 -72 34 -238v-71h-189v147q0 53 -2 64q-8 39 -39 39t-39 -39q-2 -11 -2 -64v-258q50 43 103 43 q108 0 146 -103q22 -62 22 -196v-280q0 -164 -35 -237q-51 -107 -195 -107t-194 107q-35 72 -35 237v718z" />
<glyph unicode="7" horiz-adv-x="422" d="M9 614v157h131l18 56q76 241 90 377h-258v166h426v-59q0 -220 -85 -540h14v-157h-55q-63 -263 -63 -528q0 -14 2 -43t2 -43h-200q0 333 66 614h-88z" />
<glyph unicode="8" horiz-adv-x="541" d="M311 961v159q0 53 -2 64q-8 39 -39 39t-39 -39q-2 -11 -2 -64v-159q0 -53 2 -64q8 -39 39 -39q41 0 41 103zM41 610q0 142 61 183q-61 44 -61 182v110q0 304 229 304q133 0 187 -90q43 -70 43 -214v-110q0 -135 -64 -182q44 -29 57 -89q7 -31 7 -110v-268 q0 -164 -35 -237q-51 -107 -195 -107t-194 107q-35 72 -35 237v284zM229 600v-350q0 -103 41 -103q32 0 39 39q2 9 2 64v350q0 54 -2 65q-8 40 -39 40q-41 0 -41 -105z" />
<glyph unicode="9" horiz-adv-x="541" d="M229 748q0 -3 -1 -8.5t-1 -8.5q0 -88 43 -88q32 0 39 40q2 11 2 65v370q0 105 -41 105t-41 -86v-389zM500 326q0 -166 -34 -239q-51 -107 -196 -107q-144 0 -195 108q-34 72 -34 238v71h188v-147q0 -105 41 -105t41 105v258q-49 -43 -94 -43q-115 0 -153 98 q-23 60 -23 199v280q0 166 34 239q51 108 195 108t195 -108q35 -74 35 -239v-716z" />
<glyph unicode=":" horiz-adv-x="270" d="M41 1219h188v-224h-188v224zM41 223h188v-223h-188v223z" />
<glyph unicode=";" horiz-adv-x="270" d="M41 1219h188v-224h-188v224zM41 223h188v-223l-110 -137l-41 33l45 104h-82v223z" />
<glyph unicode="&#x3c;" horiz-adv-x="1706" d="M1442 1006l-969 -396l969 -393v-154l-1178 484v129l1178 483v-153z" />
<glyph unicode="=" horiz-adv-x="1706" d="M1452 481v-139h-1198v139h1198zM1452 879v-140h-1198v140h1198z" />
<glyph unicode="&#x3e;" horiz-adv-x="1706" d="M1442 676v-129l-1178 -484v154l971 393l-971 396v153z" />
<glyph unicode="?" horiz-adv-x="451" d="M150 309v41q0 220 36 348q4 13 20 62q52 156 52 272v125q0 103 -39 103t-39 -103v-170h-172v105q0 154 30 222q47 103 179 103q209 0 209 -282v-123q0 -128 -76 -350l-18 -54q-37 -108 -37 -299h-145zM127 223h188v-223h-188v223z" />
<glyph unicode="@" horiz-adv-x="2048" d="M1284 854l57 115h132l-146 -576q-8 -32 -8 -59q0 -94 100 -94q101 0 209 102q170 161 170 420q0 279 -211 438q-191 143 -479 143q-265 0 -457 -114t-296.5 -299.5t-104.5 -409.5q0 -344 254 -538q210 -160 524 -160q346 0 621 190l55 -82q-297 -223 -664 -223 q-383 0 -628 187q-306 234 -306 628q0 334 203 582q297 362 807 362q340 0 563 -172q265 -204 265 -514q0 -354 -248 -551q-141 -112 -316 -112q-200 0 -200 157v19q-108 -174 -301 -174q-314 0 -314 332q0 221 126 380q136 173 351 173q170 0 242 -150zM1190 475l59 236 q-36 184 -198 184q-156 0 -248 -153q-78 -130 -78 -296q0 -219 186 -219q103 0 181 75q72 68 98 173z" />
<glyph unicode="A" horiz-adv-x="553" d="M315 0v268h-77v-268h-191v270q0 785 119 1129h219q121 -353 121 -1129v-270h-191zM276 1167q-41 -255 -42 -729h85q-4 277 -8 365q-8 207 -35 364z" />
<glyph unicode="B" horiz-adv-x="557" d="M326 270v340q0 49 -9 68q-14 29 -57 29h-14v-535h8q47 0 61 27q11 19 11 71zM319 975v155q0 99 -61 99h-12v-350h12q41 0 54 29q7 17 7 67zM57 1399h193q141 0 198.5 -54t57.5 -194v-197q0 -75 -7 -100q-15 -52 -67 -63q82 -38 82 -183v-358q0 -140 -57.5 -194 t-198.5 -54h-201v1397z" />
<glyph unicode="C" horiz-adv-x="545" d="M510 1065v-107h-195v185q0 104 -39 104q-38 0 -38 -104v-885q0 -104 38 -104q30 0 37 40q2 10 2 64v268h195v-194q0 -168 -35 -242q-52 -108 -199 -108t-198 108q-35 73 -35 242v733q0 169 35 242q51 110 198 110t199 -109q35 -74 35 -243z" />
<glyph unicode="D" horiz-adv-x="561" d="M57 1399h219q146 0 198 -71q44 -60 44 -214v-829q0 -154 -44 -214q-52 -71 -198 -71h-219v1399zM326 293v813q0 66 -6 84q-14 39 -64 39h-10v-1059h10q50 0 64 39q6 18 6 84z" />
<glyph unicode="E" horiz-adv-x="461" d="M57 0v1399h381v-170h-192v-350h182v-170h-182v-539h192v-170h-381z" />
<glyph unicode="F" horiz-adv-x="451" d="M57 0v1399h381v-170h-192v-350h182v-170h-182v-709h-189z" />
<glyph unicode="G" horiz-adv-x="559" d="M510 991h-195v152q0 104 -39 104q-38 0 -38 -104v-885q0 -104 38 -104q30 0 37 40q2 10 2 64v453h-43v170h238v-881h-98l-19 61q-36 -81 -153 -81q-132 0 -174 119q-23 66 -23 233v733q0 169 35 242q51 110 198 110t199 -109q35 -74 35 -243v-74z" />
<glyph unicode="H" horiz-adv-x="571" d="M57 0v1399h189v-522h80v522h188v-1399h-188v707h-80v-707h-189z" />
<glyph unicode="I" horiz-adv-x="317" d="M61 0v1399h195v-1399h-195z" />
<glyph unicode="J" horiz-adv-x="526" d="M283 1399h194v-1067q0 -170 -34 -242q-52 -108 -199 -108t-199 108q-35 73 -35 242v194h195v-268q0 -54 2 -64q7 -40 37 -40q39 0 39 104v1141z" />
<glyph unicode="K" horiz-adv-x="559" d="M57 1399h189v-522q47 75 65 256q6 61 13 266h188v-60q0 -293 -68 -462q43 -114 58 -436q3 -66 10 -441h-188q-2 38 -4 103q-16 554 -52 651q-8 -17 -22 -29v-725h-189v1399z" />
<glyph unicode="L" horiz-adv-x="426" d="M57 0v1399h195v-1229h184v-170h-379z" />
<glyph unicode="M" horiz-adv-x="840" d="M328 0v682q0 187 -10 271q-18 152 -78 257q10 -158 10 -270v-940h-187v1399h259q60 -118 98 -287q36 167 98 287h256v-1399h-184v940q0 118 10 270q-60 -105 -78 -257q-10 -84 -10 -271v-682h-184z" />
<glyph unicode="N" horiz-adv-x="571" d="M57 1399h160q56 -99 117 -244l-8 244h188v-1399h-188v551q0 188 -10 272q-18 153 -78 258q8 -124 8 -270v-811h-189v1399z" />
<glyph unicode="O" horiz-adv-x="553" d="M238 258q0 -104 38 -104q30 0 37 40q2 10 2 64v885q0 104 -39 104q-38 0 -38 -104v-885zM43 1065q0 169 35 242q51 110 198 110t199 -109q35 -74 35 -243v-733q0 -168 -35 -242q-52 -108 -199 -108t-198 108q-35 73 -35 242v733z" />
<glyph unicode="P" horiz-adv-x="530" d="M57 0v1399h201q141 0 198.5 -54t57.5 -194v-207q0 -248 -223 -248h-45v-696h-189zM326 965v165q0 51 -9 70q-15 29 -59 29h-12v-361h8q47 0 61 26q11 19 11 71z" />
<glyph unicode="Q" horiz-adv-x="557" d="M43 1065q0 169 35 242q51 110 198 110t199 -109q35 -74 35 -243v-733q0 -230 -57 -283l92 -82l-115 -102l-131 117q-12 0 -25 -2h-4q-142 0 -193 113q-34 75 -34 239v733zM238 1143v-885q0 -104 38 -104q30 0 37 40q2 10 2 64v885q0 104 -39 104q-38 0 -38 -104z" />
<glyph unicode="R" horiz-adv-x="555" d="M57 0v1399h201q141 0 198.5 -54t57.5 -194v-207q0 -182 -55 -213l69 -731h-188l-55 696h-39v-696h-189zM326 946v184q0 51 -9 70q-15 29 -59 29h-12v-381h8q47 0 61 27q11 19 11 71z" />
<glyph unicode="S" horiz-adv-x="543" d="M506 956h-195v187q0 104 -41 104q-39 0 -39 -104v-72q0 -121 93 -227q4 -4 16 -19l3 -3q163 -163 163 -363v-127q0 -168 -35 -242q-52 -108 -199 -108t-198 108q-35 73 -35 242v200h192v-274q0 -104 39 -104q41 0 41 104v123q0 112 -26 176q-25 59 -103 148 q-85 96 -113 164q-30 74 -30 196v76q0 276 233 276q147 0 199 -109q35 -74 35 -243v-109z" />
<glyph unicode="T" horiz-adv-x="426" d="M117 0v1229h-103v170h398v-170h-101v-1229h-194z" />
<glyph unicode="U" horiz-adv-x="561" d="M242 258q0 -104 39 -104q38 0 38 104v1141h193v-1067q0 -167 -35 -241q-51 -109 -196 -109q-146 0 -198 108q-34 73 -34 242v1067h193v-1141z" />
<glyph unicode="V" horiz-adv-x="553" d="M238 1399v-336q0 -633 38 -895q39 262 39 895v336h191v-406q0 -323 -17 -503q-26 -278 -104 -490h-219q-75 202 -101 464q-18 176 -18 476v459h191z" />
<glyph unicode="W" horiz-adv-x="819" d="M348 0h-182q-75 202 -101 464q-18 176 -18 476v459h191v-336q0 -633 38 -895q39 262 39 895v336h191v-336q0 -639 39 -895q39 262 39 895v336h188v-434q0 -309 -17 -489q-27 -269 -102 -476h-182q-39 119 -61 207q-28 -104 -62 -207z" />
<glyph unicode="X" horiz-adv-x="543" d="M231 1399q0 -383 39 -535q41 139 41 535h189q0 -11 1 -34t1 -34q0 -284 -58 -530q56 -246 56 -598v-203h-189v186q0 379 -41 523q-39 -150 -39 -523v-186h-188v203q0 352 55 598q-55 232 -55 538v60h188z" />
<glyph unicode="Y" d="M149 0v481q-132 350 -133 918h188v-125q0 -424 39 -557q39 154 39 561v121h190v-70q0 -466 -133 -848v-481h-190z" />
<glyph unicode="Z" horiz-adv-x="508" d="M47 1399h434v-185l-276 -1044h239v-170h-419v201l272 1028h-250v170z" />
<glyph unicode="[" horiz-adv-x="346" d="M57 1399h289v-94h-115v-1330h115v-94h-289v1518z" />
<glyph unicode="\" horiz-adv-x="342" d="M-14 1399h102l295 -1589h-102z" />
<glyph unicode="]" horiz-adv-x="346" d="M115 1305h-115v94h289v-1518h-289v94h115v1330z" />
<glyph unicode="^" horiz-adv-x="2048" d="M1116 1458l510 -557h-180l-422 420l-424 -420h-180l510 557h186z" />
<glyph unicode="_" horiz-adv-x="1024" d="M1024 -340v-143h-1024v143h1024z" />
<glyph unicode="`" horiz-adv-x="1024" d="M356 1491h168l66 -178h-129z" />
<glyph unicode="a" d="M33 883v96q0 258 207 258q204 0 204 -246q0 -2 1 -10q1 -20 1 -61v-920h-165v61q-31 -73 -103 -73q-105 0 -134 117q-11 47 -11 202v150q0 151 51 219q40 53 186 131v250q0 39 -30 39q-31 0 -31 -80v-133h-176zM209 205q0 -82 31 -82q30 0 30 41v477q-61 -37 -61 -139 v-297z" />
<glyph unicode="b" horiz-adv-x="502" d="M289 1040q0 41 -31 41t-31 -80v-808q0 -66 31 -66t31 43v870zM469 305q0 -151 -12 -201q-29 -118 -133 -118q-78 0 -111 75v-61h-162v1399h176v-219q24 53 97 53q104 0 133 -118q12 -50 12 -202v-608z" />
<glyph unicode="c" horiz-adv-x="473" d="M33 979q0 258 211 258t211 -246v-184h-181v246q0 43 -30 43q-31 0 -31 -64v-827q0 -82 31 -82q30 0 30 43v313h181v-264q0 -233 -211 -233q-136 0 -181 96q-30 63 -30 221v680z" />
<glyph unicode="d" horiz-adv-x="502" d="M213 209q0 -82 31 -82q30 0 30 39v866q0 49 -30 49q-31 0 -31 -39v-833zM33 913q0 154 12 202q28 118 133 118q72 0 96 -53v219h177v-1399h-162v61q-33 -75 -111 -75q-105 0 -133 117q-12 48 -12 202v608z" />
<glyph unicode="e" d="M274 748v268q0 81 -30 80q-31 -1 -31 -80v-268h61zM33 979q0 258 211 258t211 -246v-387h-242v-399q0 -82 31 -82q30 0 30 43v313h181v-264q0 -233 -211 -233q-136 0 -181 96q-30 63 -30 221v680z" />
<glyph unicode="f" horiz-adv-x="303" d="M61 1249q0 92 18 124q25 44 107 44q47 0 95 -16v-127q-2 0 -5.5 1t-5.5 1q-28 0 -28 -27v-30h39v-144h-39v-1075h-181v1075h-38v144h38v30z" />
<glyph unicode="g" horiz-adv-x="498" d="M444 168q0 -168 -40 -229q-51 -80 -205 -80q-113 0 -197 41l47 139q65 -43 127 -43q92 0 92 90v23q-25 -54 -90 -54q-103 0 -133 120q-12 51 -12 202v536q0 153 12 202q29 118 133 118q63 0 105 -72v58h161v-1051zM268 1044q0 43 -30 43q-31 0 -31 -81v-723q0 -80 31 -80 q30 0 30 39v802z" />
<glyph unicode="h" horiz-adv-x="508" d="M289 0v1042q0 45 -31 45t-31 -65v-1022h-176v1399h176v-219q26 53 92 53q105 0 134 -117q12 -49 12 -203v-913h-176z" />
<glyph unicode="i" horiz-adv-x="285" d="M51 1219h180v-1219h-180v1219zM51 1417h180v-157h-180v157z" />
<glyph unicode="j" horiz-adv-x="285" d="M231 37q0 -98 -16 -129q-24 -49 -109 -49q-42 0 -92 16v123h9q28 0 28 31v1190h180v-1182zM51 1417h180v-157h-180v157z" />
<glyph unicode="k" horiz-adv-x="512" d="M227 774q53 59 61 401q0 17 1 44h176v-33q0 -273 -57 -434q48 -150 60 -752h-179q-2 263 -3 314q-8 246 -38 309l-21 -23v-600h-176v1399h176v-625z" />
<glyph unicode="l" horiz-adv-x="285" d="M51 1399h180v-1399h-180v1399z" />
<glyph unicode="m" horiz-adv-x="743" d="M53 1219h162v-61q20 75 104 75q78 0 121 -66q37 66 115 66q105 0 135 -117q12 -50 12 -203v-913h-176v1042q0 45 -30 45q-31 0 -31 -65v-1022h-174v1006q0 10 -1 23l-1 13q0 45 -31 45q-29 0 -29 -65v-1022h-176v1219z" />
<glyph unicode="n" horiz-adv-x="508" d="M291 0v1042q0 45 -33 45t-33 -65v-1022h-174v1219h162v-62q21 76 106 76q105 0 134 -118q12 -50 12 -202v-913h-174z" />
<glyph unicode="o" d="M33 979q0 258 211 258t211 -246v-776q0 -233 -211 -233q-136 0 -181 96q-30 63 -30 221v680zM274 1047q0 49 -30 49q-31 0 -31 -39v-852q0 -82 31 -82q30 0 30 41v883z" />
<glyph unicode="p" horiz-adv-x="502" d="M227 217q0 -80 31 -80t31 39v864q0 52 -31 52t-31 -41v-834zM227 -180h-176v1399h162v-62q33 76 111 76q104 0 133 -118q12 -50 12 -202v-608q0 -153 -12 -202q-29 -117 -133 -117q-71 0 -97 53v-219z" />
<glyph unicode="q" horiz-adv-x="502" d="M33 913q0 154 12 202q28 118 133 118q75 0 111 -76v62h162v-1399h-177v219q-24 -53 -96 -53q-105 0 -133 117q-12 48 -12 202v608zM213 1010v-809q0 -64 31 -64q30 0 30 43v869q0 44 -30 43q-31 -1 -31 -82z" />
<glyph unicode="r" horiz-adv-x="483" d="M289 735v307q0 45 -31 45t-31 -65v-1022h-176v1219h162v-62q21 76 106 76q105 0 134 -118q12 -50 12 -202v-178h-176z" />
<glyph unicode="s" horiz-adv-x="479" d="M451 215q0 -233 -211 -233q-136 0 -181 96q-30 63 -30 221v203h180v-297q0 -82 31 -82q30 0 30 43v188q0 143 -97 265l-20 25q-4 5 -14 17q-110 134 -110 259v116q0 93 60 148q57 53 151 53q211 0 211 -260v-135h-181v211q0 43 -30 43q-31 0 -31 -64v-90q0 -93 99 -210 q37 -43 61 -75q82 -107 82 -243v-199z" />
<glyph unicode="t" horiz-adv-x="303" d="M242 1219h39v-144h-39v-925q0 -27 30 -27h9v-125q-48 -16 -95 -16q-84 0 -109 50q-16 33 -16 130v913h-38v144h38v141l181 57v-198z" />
<glyph unicode="u" horiz-adv-x="508" d="M217 1219v-1006q0 -82 33 -82q29 0 29 43v6q2 18 2 33v1006h174v-1219h-160v61q-24 -75 -107 -75q-105 0 -134 117q-11 47 -11 202v914h174z" />
<glyph unicode="v" horiz-adv-x="498" d="M43 1219h174v-590q0 -342 33 -430q31 89 31 430v590h174v-562q0 -373 -105 -657h-203q-104 281 -104 657v562z" />
<glyph unicode="w" horiz-adv-x="735" d="M422 0q-40 135 -55 215q-31 -140 -54 -215h-166q-104 281 -104 657v562h174v-590q0 -342 33 -430q31 89 31 430v590h174v-590q0 -349 30 -430q31 89 31 430v590h176v-562q0 -370 -106 -657h-164z" />
<glyph unicode="x" d="M274 258q0 221 -30 328q-31 -103 -31 -328v-258h-174v166q0 348 63 512q-63 169 -63 440v101h174v-183q0 -210 31 -297q30 90 30 297v183h177v-101q0 -264 -64 -440q64 -164 64 -512v-166h-177v258z" />
<glyph unicode="y" d="M39 1219h174v-678q0 -256 31 -375q30 124 30 375v678h177v-562q0 -200 -31 -393q-42 -265 -127 -364q-35 -41 -131 -41h-113v116h19q61 0 86 27q-115 252 -115 655v562z" />
<glyph unicode="z" horiz-adv-x="473" d="M43 1219h389v-152l-237 -926h237v-141h-407v123l245 952h-227v144z" />
<glyph unicode="{" horiz-adv-x="1024" d="M866 1327h-41q-126 0 -167 -52q-35 -46 -35 -177v-242q0 -143 -34 -209q-44 -84 -167 -117q124 -31 168 -116q33 -65 33 -209v-242q0 -132 36 -177q41 -52 168 -52h39v-148h-43q-193 0 -272 49q-68 42 -89 138q-11 52 -11 170v245q0 141 -49 202q-54 69 -191 69 q-7 0 -21.5 -1t-21.5 -1v149q8 0 22.5 -1t22.5 -1q135 0 190 68q48 60 48 200v246q0 118 11 170q21 95 89 137q84 52 278 52h37v-150z" />
<glyph unicode="|" horiz-adv-x="1024" d="M588 1565v-2048h-150v2048h150z" />
<glyph unicode="}" horiz-adv-x="1024" d="M575 1118v-246q0 -140 48 -200q55 -68 190 -68q8 0 22.5 1t22.5 1v-149q-7 0 -21.5 1t-21.5 1q-138 0 -192 -68q-48 -61 -48 -203v-245q0 -118 -11 -170q-21 -96 -89 -138q-79 -49 -272 -49h-43v148h39q126 0 168 53q36 46 36 178v240q0 143 34 208q44 85 167 117 q-123 33 -167 117q-34 66 -34 209v242q0 131 -36 177q-42 52 -168 52h-39v150h37q194 0 278 -52q68 -42 89 -137q11 -52 11 -170z" />
<glyph unicode="~" horiz-adv-x="1706" d="M1530 614q-204 -141 -389 -141q-93 0 -256 58l-49 17q-180 60 -273 60q-160 0 -385 -157v155q212 144 387 144q114 0 291 -62q6 -2 47 -17q157 -57 240 -57q166 0 387 156v-156z" />
<glyph horiz-adv-x="541" d="M530 1044v-106h-194v182q0 103 -39 103t-39 -103v-295h217l-43 -94h-174v-94h131l-41 -94h-90v-291q0 -102 39 -102q30 0 37 39q2 10 2 63v178h194v-104q0 -168 -35 -239q-51 -105 -198 -105t-199 104q-35 72 -35 240v217h-96l41 94h55v94h-96l41 94h55v219q0 168 35 240 q52 105 199 105t198 -105q35 -72 35 -240z" />
<glyph unicode="&#xa1;" horiz-adv-x="303" d="M57 1399h189v-223h-189v223zM246 0h-189l29 1092h131z" />
<glyph unicode="&#xa2;" horiz-adv-x="541" d="M59 983q0 112 31 168q40 70 141 84v135h91v-135q157 -36 157 -240q0 -2 1 -9q1 -30 1 -60v-193h-180v287q0 80 -31 80q-30 0 -30 -64v-817q0 -78 30 -78q31 0 31 41v248h180v-121q0 -151 -15 -199q-32 -99 -144 -110v-117h-91v117q-116 20 -151 111q-21 55 -21 202v670z " />
<glyph unicode="&#xa3;" horiz-adv-x="541" d="M457 911h-162v209q0 103 -39 103q-43 0 -43 -109q0 -125 63 -430h197v-100h-184v-5q8 -69 8 -106q0 -127 -51 -270q32 -66 78 -66q32 0 32 72v246h162v-181q0 -124 -14 -181q-28 -113 -115 -113q-90 0 -190 129q-59 -109 -111 -109q-78 0 -78 150q0 145 86 145 q41 0 70 -35q14 34 14 94q0 135 -33 230h-114v100h90q-103 328 -103 459q0 246 230 246q137 0 180 -95q27 -60 27 -221v-162z" />
<glyph unicode="&#xa4;" horiz-adv-x="541" d="M530 1044v-106h-194v182q0 103 -39 103t-39 -103v-295h217l-43 -94h-174v-94h131l-41 -94h-90v-291q0 -102 39 -102q30 0 37 39q2 10 2 63v178h194v-104q0 -168 -35 -239q-51 -105 -198 -105t-199 104q-35 72 -35 240v217h-96l41 94h55v94h-96l41 94h55v219q0 168 35 240 q52 105 199 105t198 -105q35 -72 35 -240z" />
<glyph unicode="&#xa5;" horiz-adv-x="541" d="M362 473v-473h-184v473h-143v94l110 1q-14 41 -24 95l-86 1v94h61q-51 290 -53 612h188v-131q0 -444 39 -590q39 156 39 594v127h189v-67q0 -194 -54 -545h62v-94h-84q-8 -43 -29 -97h113v-94h-144z" />
<glyph unicode="&#xa6;" horiz-adv-x="1024" d="M588 408v-758h-150v758h150zM588 1432v-758h-150v758h150z" />
<glyph unicode="&#xa7;" horiz-adv-x="545" d="M365 623q0 106 -160 196q-27 -18 -27 -108v-52q0 -109 162 -196q25 18 25 108v52zM502 956h-144v201q0 121 -90 121q-53 0 -70 -35q-12 -24 -12 -84q0 -81 18 -118q20 -43 85 -83l88 -55q85 -53 112 -133q19 -56 19 -178q0 -157 -62 -201q60 -65 60 -237 q0 -295 -236 -295q-135 0 -188 93q-41 71 -41 218v147h145v-198q0 -123 88 -123q53 0 71 36q13 25 13 85q0 81 -19 118t-85 80l-86 56q-83 54 -110 125q-21 54 -21 168q0 174 59 219q-57 66 -57 237q0 297 233 297q134 0 188 -94q42 -73 42 -219v-148z" />
<glyph unicode="&#xa8;" horiz-adv-x="1024" d="M541 1329v162h157v-162h-157zM328 1329v162h157v-162h-157z" />
<glyph unicode="&#xa9;" horiz-adv-x="1706" d="M1053 907q-27 160 -205 160q-121 0 -180 -116q-45 -90 -45 -224q0 -137 48 -223q61 -109 187 -109q175 0 205 176h145q-10 -138 -116 -218q-98 -74 -240 -74q-194 0 -297 133q-92 120 -92 321q0 191 101 313q108 132 294 132q134 0 228 -68q102 -74 114 -203h-147z M1493 727q0 269 -184 453q-188 188 -455 188q-264 0 -448 -184q-193 -193 -193 -457q0 -261 189 -450t452 -189q190 0 355 109.5t237 284.5q47 114 47 245zM852 1464q309 0 524 -215t215 -522q0 -308 -213 -516q-226 -221 -526 -221q-299 0 -517 218t-218 519q0 304 219 524 q212 213 516 213z" />
<glyph unicode="&#xaa;" horiz-adv-x="367" d="M25 1163v68q0 180 155 180q154 0 154 -172v-6q2 -30 2 -45v-643h-125v43q-25 -51 -78 -51q-78 0 -99 79q-9 35 -9 144v104q0 108 40 156q30 37 138 90v174q0 29 -23 29q-22 0 -22 -58v-92h-133zM158 688q0 -57 22 -57q23 0 23 28v334q-45 -24 -45 -96v-209z" />
<glyph unicode="&#xab;" horiz-adv-x="588" d="M272 164l-239 301v291l239 299v-256l-147 -191l147 -182v-262zM543 164l-240 301v291l240 299v-256l-148 -191l148 -182v-262z" />
<glyph unicode="&#xac;" horiz-adv-x="1706" d="M1452 860v-502h-137v363h-1061v139h1198z" />
<glyph unicode="&#xad;" horiz-adv-x="289" d="M33 545v157h223v-157h-223z" />
<glyph unicode="&#xae;" horiz-adv-x="1706" d="M844 1057h-129v-277h133q211 0 211 133q0 144 -215 144zM872 1159q349 0 349 -229q0 -187 -191 -225l187 -381h-177l-170 356h-155v-356h-158v835h315zM1493 721q0 274 -182 457q-189 190 -457 190q-267 0 -446 -182q-195 -198 -195 -459q0 -190 109.5 -352.5 t285.5 -236.5q116 -50 240 -50q265 0 459 188q186 180 186 445zM852 1464q310 0 526 -219q213 -216 213 -518q0 -309 -215 -518q-225 -219 -524 -219q-302 0 -520 221q-215 218 -215 516q0 302 223 528q206 209 512 209z" />
<glyph unicode="&#xaf;" horiz-adv-x="1024" d="M350 1479h312v-154h-312v154z" />
<glyph unicode="&#xb0;" horiz-adv-x="674" d="M530 1169q0 82 -55.5 137.5t-136.5 55.5q-82 0 -138.5 -56t-56.5 -137q0 -82 56.5 -139t138.5 -57q81 0 136.5 57t55.5 139zM338 1456q120 0 203.5 -84.5t83.5 -204.5q0 -121 -84 -203.5t-205 -82.5t-204 82.5t-83 203.5t84 205t205 84z" />
<glyph unicode="&#xb1;" horiz-adv-x="1706" d="M1452 170v-141h-1198v141h1198zM924 1192v-340h528v-139h-528v-340h-142v340h-528v139h528v340h142z" />
<glyph unicode="&#xb2;" horiz-adv-x="334" d="M186 1229q0 51 -24 51q-29 0 -29 -61v-97h-125v52q0 102 25 146q34 60 127 60q92 0 126 -60q25 -44 25 -146v-54q0 -113 -67 -233q-7 -11 -24 -41q-74 -128 -83 -199h182v-100h-299q0 122 7 170q8 58 72 164l3 5q4 6 13 22q71 118 71 251v70z" />
<glyph unicode="&#xb3;" horiz-adv-x="356" d="M150 686q0 -51 24 -51q27 0 27 61v178q0 59 -22.5 77t-84.5 18v92h8q54 0 76.5 17.5t22.5 68.5v72q0 61 -27 61q-24 0 -24 -51v-103h-127v48q0 102 25 146q33 60 126 60q154 0 154 -172v-67q0 -110 -56 -125q56 -25 56 -125v-150q0 -101 -26 -146q-35 -58 -128 -58 q-92 0 -126 59q-25 43 -25 145v111h127v-166z" />
<glyph unicode="&#xb4;" horiz-adv-x="1024" d="M500 1491h168l-105 -178h-129z" />
<glyph unicode="&#xb6;" horiz-adv-x="1024" d="M958 1393h-120v-1393h-111v1393h-176v-1393h-113v782q-163 8 -263 95q-109 94 -109 253q0 166 116 261q108 88 277 88h499v-86z" />
<glyph unicode="&#xb7;" horiz-adv-x="270" d="M25 688q0 44 33 78.5t77 34.5q47 0 79 -33t32 -80q0 -45 -33 -77.5t-78 -32.5q-41 0 -75.5 34.5t-34.5 75.5z" />
<glyph unicode="&#xb8;" horiz-adv-x="1024" d="M498 0h104q57 -84 57 -145q0 -150 -184 -150q-6 0 -16.5 1t-16.5 1v143h19q61 0 61 64q0 36 -24 86z" />
<glyph unicode="&#xb9;" horiz-adv-x="238" d="M106 1368h87v-821h-121v665q-41 -23 -78 -30v94q67 24 112 92z" />
<glyph unicode="&#xba;" horiz-adv-x="367" d="M25 1231q0 180 157 180q160 0 160 -172v-543q0 -164 -160 -164q-100 0 -134 64q-23 45 -23 158v477zM207 1278q0 35 -25 35q-22 0 -22 -29v-596q0 -57 22 -57q25 0 25 28v619z" />
<glyph unicode="&#xbb;" horiz-adv-x="588" d="M315 1055l240 -301v-291l-240 -299v256l148 188l-148 185v262zM45 1055l240 -301v-291l-240 -299v256l148 188l-148 185v262z" />
<glyph unicode="&#xbc;" horiz-adv-x="764" d="M604 0v147h-166v177q0 293 101 444h184v-528h29v-93h-29v-147h-119zM555 442v-202h49v434q-49 -73 -49 -232zM514 1389h92l-477 -1407h-92zM102 1370h82v-768h-116v623q-34 -23 -74 -29v86q66 23 108 88z" />
<glyph unicode="&#xbd;" horiz-adv-x="735" d="M596 637q0 47 -25 47q-26 0 -26 -57v-90h-119v49q0 95 24 137q32 55 119 55q88 0 122 -54q26 -43 26 -138v-51q0 -105 -66 -218l-21 -35q-72 -121 -81 -190h174v-92h-287q0 105 8 160q7 51 54 130l16 27q1 2 9 14q73 112 73 240v66zM514 1389h92l-477 -1407h-92z M102 1370h82v-768h-116v623q-34 -23 -74 -29v86q66 23 108 88z" />
<glyph unicode="&#xbe;" horiz-adv-x="879" d="M717 0v147h-166v177q0 295 100 444h185v-528h28v-93h-28v-147h-119zM668 442v-202h49v434q-49 -71 -49 -232zM627 1389h92l-477 -1407h-92zM141 733q0 -49 25 -49q27 0 27 57v168q0 55 -26 72q-20 14 -79 14v86h10q51 0 71 15q24 17 24 65v68q0 57 -27 57q-25 0 -25 -47 v-96h-118v45q0 96 24 137q31 55 119 55q145 0 145 -161v-64q0 -98 -50 -117q50 -20 50 -114v-140q0 -95 -25 -137q-33 -55 -120 -55t-119 55q-24 41 -24 137v103h118v-154z" />
<glyph unicode="&#xbf;" horiz-adv-x="451" d="M324 1176h-189v223h189v-223zM301 1090q0 -10 1 -31t1 -31q0 -122 -55 -342.5t-55 -318.5v-142q0 -86 38 -86q39 0 39 103v168h172v-103q0 -155 -30 -222q-46 -103 -179 -103q-208 0 -208 280v125q0 151 65 328v2q64 162 64 334v39h147z" />
<glyph unicode="&#xc0;" horiz-adv-x="553" d="M315 0v268h-77v-268h-191v270q0 785 119 1129h219q121 -353 121 -1129v-270h-191zM276 1167q-41 -255 -42 -729h85q-4 277 -8 365q-8 207 -35 364zM120 1669h168l66 -178h-129z" />
<glyph unicode="&#xc1;" horiz-adv-x="553" d="M315 0v268h-77v-268h-191v270q0 785 119 1129h219q121 -353 121 -1129v-270h-191zM276 1167q-41 -255 -42 -729h85q-4 277 -8 365q-8 207 -35 364zM264 1669h168l-105 -178h-129z" />
<glyph unicode="&#xc2;" horiz-adv-x="553" d="M315 0v268h-77v-268h-191v270q0 785 119 1129h219q121 -353 121 -1129v-270h-191zM276 1167q-41 -255 -42 -729h85q-4 277 -8 365q-8 207 -35 364zM196 1669h160l113 -178h-140l-53 71l-53 -71h-140z" />
<glyph unicode="&#xc3;" horiz-adv-x="553" d="M315 0v268h-77v-268h-191v270q0 785 119 1129h219q121 -353 121 -1129v-270h-191zM276 1167q-41 -255 -42 -729h85q-4 277 -8 365q-8 207 -35 364zM358 1669h84v-49q0 -113 -76 -113q-12 0 -20 2l-103 25q-3 0 -6 1l-4 1q-37 0 -37 -43h-86v49q0 111 78 111q3 0 10 -1 t10 -1l105 -23q2 0 5 -1t5 -1q35 0 35 43z" />
<glyph unicode="&#xc4;" horiz-adv-x="553" d="M315 0v268h-77v-268h-191v270q0 785 119 1129h219q121 -353 121 -1129v-270h-191zM276 1167q-41 -255 -42 -729h85q-4 277 -8 365q-8 207 -35 364zM305 1507v162h157v-162h-157zM92 1507v162h157v-162h-157z" />
<glyph unicode="&#xc5;" horiz-adv-x="553" d="M119 1608q0 64 46.5 110.5t110.5 46.5q65 0 111.5 -46t46.5 -111q0 -66 -46 -112t-112 -46t-111.5 46t-45.5 112zM215 1606q0 -60 61 -60q62 0 62 60q0 63 -62 63q-61 0 -61 -63zM315 0v268h-77v-268h-191v270q0 785 119 1129h219q121 -353 121 -1129v-270h-191z M276 1167q-41 -255 -42 -729h85q-4 277 -8 365q-8 207 -35 364z" />
<glyph unicode="&#xc6;" horiz-adv-x="694" d="M670 1399v-170h-191v-350h183v-170h-183v-539h191v-170h-377v268h-78v-268h-190v270q0 783 172 1129h473zM293 1217q-67 -264 -82 -779h82v779z" />
<glyph unicode="&#xc7;" horiz-adv-x="545" d="M510 1065v-107h-195v185q0 104 -39 104q-38 0 -38 -104v-885q0 -104 38 -104q30 0 37 40q2 10 2 64v268h195v-194q0 -168 -35 -242q-52 -108 -199 -108t-198 108q-35 73 -35 242v733q0 169 35 242q51 110 198 110t199 -109q35 -74 35 -243zM273 0h104q57 -84 57 -145 q0 -150 -184 -150q-6 0 -16.5 1t-16.5 1v143h19q61 0 61 64q0 36 -24 86z" />
<glyph unicode="&#xc8;" horiz-adv-x="461" d="M57 0v1399h381v-170h-192v-350h182v-170h-182v-539h192v-170h-381zM86 1669h168l66 -178h-129z" />
<glyph unicode="&#xc9;" horiz-adv-x="461" d="M57 0v1399h381v-170h-192v-350h182v-170h-182v-539h192v-170h-381zM230 1669h168l-105 -178h-129z" />
<glyph unicode="&#xca;" horiz-adv-x="461" d="M57 0v1399h381v-170h-192v-350h182v-170h-182v-539h192v-170h-381zM162 1669h160l113 -178h-140l-53 71l-53 -71h-140z" />
<glyph unicode="&#xcb;" horiz-adv-x="461" d="M57 0v1399h381v-170h-192v-350h182v-170h-182v-539h192v-170h-381zM271 1507v162h157v-162h-157zM58 1507v162h157v-162h-157z" />
<glyph unicode="&#xcc;" horiz-adv-x="317" d="M61 0v1399h195v-1399h-195zM4 1669h168l66 -178h-129z" />
<glyph unicode="&#xcd;" horiz-adv-x="317" d="M61 0v1399h195v-1399h-195zM148 1669h168l-105 -178h-129z" />
<glyph unicode="&#xce;" horiz-adv-x="317" d="M61 0v1399h195v-1399h-195zM80 1669h160l113 -178h-140l-53 71l-53 -71h-140z" />
<glyph unicode="&#xcf;" horiz-adv-x="317" d="M61 0v1399h195v-1399h-195zM189 1507v162h157v-162h-157zM-24 1507v162h157v-162h-157z" />
<glyph unicode="&#xd0;" horiz-adv-x="588" d="M250 733v-563h16q60 0 76 33q10 20 10 90v813q0 70 -11 91q-17 32 -77 32h-14v-377h57v-119h-57zM59 1399h244q147 0 199 -71q45 -60 45 -214v-829q0 -154 -45 -214q-52 -71 -199 -71h-244v733h-57v119h57v547z" />
<glyph unicode="&#xd1;" horiz-adv-x="571" d="M57 1399h160q56 -99 117 -244l-8 244h188v-1399h-188v551q0 188 -10 272q-18 153 -78 258q8 -124 8 -270v-811h-189v1399zM322 1669h84v-49q0 -113 -76 -113q-12 0 -20 2l-103 25q-3 0 -6 1l-4 1q-37 0 -37 -43h-86v49q0 111 78 111q3 0 10 -1t10 -1l105 -23q2 0 5 -1 t5 -1q35 0 35 43z" />
<glyph unicode="&#xd2;" horiz-adv-x="553" d="M238 258q0 -104 38 -104q30 0 37 40q2 10 2 64v885q0 104 -39 104q-38 0 -38 -104v-885zM43 1065q0 169 35 242q51 110 198 110t199 -109q35 -74 35 -243v-733q0 -168 -35 -242q-52 -108 -199 -108t-198 108q-35 73 -35 242v733zM120 1669h168l66 -178h-129z" />
<glyph unicode="&#xd3;" horiz-adv-x="553" d="M238 258q0 -104 38 -104q30 0 37 40q2 10 2 64v885q0 104 -39 104q-38 0 -38 -104v-885zM43 1065q0 169 35 242q51 110 198 110t199 -109q35 -74 35 -243v-733q0 -168 -35 -242q-52 -108 -199 -108t-198 108q-35 73 -35 242v733zM264 1669h168l-105 -178h-129z" />
<glyph unicode="&#xd4;" horiz-adv-x="553" d="M238 258q0 -104 38 -104q30 0 37 40q2 10 2 64v885q0 104 -39 104q-38 0 -38 -104v-885zM43 1065q0 169 35 242q51 110 198 110t199 -109q35 -74 35 -243v-733q0 -168 -35 -242q-52 -108 -199 -108t-198 108q-35 73 -35 242v733zM196 1669h160l113 -178h-140l-53 71 l-53 -71h-140z" />
<glyph unicode="&#xd5;" horiz-adv-x="553" d="M238 258q0 -104 38 -104q30 0 37 40q2 10 2 64v885q0 104 -39 104q-38 0 -38 -104v-885zM43 1065q0 169 35 242q51 110 198 110t199 -109q35 -74 35 -243v-733q0 -168 -35 -242q-52 -108 -199 -108t-198 108q-35 73 -35 242v733zM358 1669h84v-49q0 -113 -76 -113 q-12 0 -20 2l-103 25q-3 0 -6 1l-4 1q-37 0 -37 -43h-86v49q0 111 78 111q3 0 10 -1t10 -1l105 -23q2 0 5 -1t5 -1q35 0 35 43z" />
<glyph unicode="&#xd6;" horiz-adv-x="553" d="M238 258q0 -104 38 -104q30 0 37 40q2 10 2 64v885q0 104 -39 104q-38 0 -38 -104v-885zM43 1065q0 169 35 242q51 110 198 110t199 -109q35 -74 35 -243v-733q0 -168 -35 -242q-52 -108 -199 -108t-198 108q-35 73 -35 242v733zM305 1507v162h157v-162h-157zM92 1507 v162h157v-162h-157z" />
<glyph unicode="&#xd7;" horiz-adv-x="1706" d="M860 709l469 469l98 -99l-469 -469l469 -469l-98 -96l-469 467l-469 -467l-98 96l469 469l-469 469l98 99z" />
<glyph unicode="&#xd8;" horiz-adv-x="637" d="M86 1065q0 169 35 242q51 110 198 110q144 0 199 -108l47 108h94l-108 -264v-57q0 -5 1 -15.5t1 -15.5v-733q0 -170 -35 -243q-51 -107 -199 -107q-153 0 -200 108l-45 -108h-99l111 268v815zM276 684l89 303v156q0 104 -46 104q-43 0 -43 -104v-459zM362 754l-86 -312 v-184q0 -104 43 -104t43 88v512z" />
<glyph unicode="&#xd9;" horiz-adv-x="561" d="M242 258q0 -104 39 -104q38 0 38 104v1141h193v-1067q0 -167 -35 -241q-51 -109 -196 -109q-146 0 -198 108q-34 73 -34 242v1067h193v-1141zM125 1669h168l66 -178h-129z" />
<glyph unicode="&#xda;" horiz-adv-x="561" d="M242 258q0 -104 39 -104q38 0 38 104v1141h193v-1067q0 -167 -35 -241q-51 -109 -196 -109q-146 0 -198 108q-34 73 -34 242v1067h193v-1141zM269 1669h168l-105 -178h-129z" />
<glyph unicode="&#xdb;" horiz-adv-x="561" d="M242 258q0 -104 39 -104q38 0 38 104v1141h193v-1067q0 -167 -35 -241q-51 -109 -196 -109q-146 0 -198 108q-34 73 -34 242v1067h193v-1141zM201 1669h160l113 -178h-140l-53 71l-53 -71h-140z" />
<glyph unicode="&#xdc;" horiz-adv-x="561" d="M242 258q0 -104 39 -104q38 0 38 104v1141h193v-1067q0 -167 -35 -241q-51 -109 -196 -109q-146 0 -198 108q-34 73 -34 242v1067h193v-1141zM310 1507v162h157v-162h-157zM97 1507v162h157v-162h-157z" />
<glyph unicode="&#xdd;" d="M150 0v481q-132 350 -133 918h188v-125q0 -424 39 -557q39 154 39 561v121h190v-70q0 -466 -133 -848v-481h-190zM232 1669h168l-105 -178h-129z" />
<glyph unicode="&#xde;" horiz-adv-x="530" d="M326 688v164q0 50 -10 69q-14 29 -58 29h-12v-360h8q47 0 61 27q11 19 11 71zM57 0v1399h189v-279h35q127 0 180 -59.5t53 -188.5v-204q0 -125 -48 -184q-53 -64 -175 -64h-45v-420h-189z" />
<glyph unicode="&#xdf;" horiz-adv-x="514" d="M61 0v1073h-41v144h41v30q0 170 162 170q193 0 193 -164q0 -59 -28 -99q65 -10 83 -67q10 -29 10 -116v-783q0 -91 -14 -128q-24 -64 -98 -64q-63 0 -113 31v133q8 -4 20 -4q29 0 29 61v774q0 45 -5 57q-8 22 -44 26v143q43 0 43 34q0 35 -31 35q-30 0 -30 -53v-1233 h-177z" />
<glyph unicode="&#xe0;" d="M33 883v96q0 258 207 258q204 0 204 -246q0 -2 1 -10q1 -20 1 -61v-920h-165v61q-31 -73 -103 -73q-105 0 -134 117q-11 47 -11 202v150q0 151 51 219q40 53 186 131v250q0 39 -30 39q-31 0 -31 -80v-133h-176zM209 205q0 -82 31 -82q30 0 30 41v477q-61 -37 -61 -139 v-297zM88 1491h168l66 -178h-129z" />
<glyph unicode="&#xe1;" d="M33 883v96q0 258 207 258q204 0 204 -246q0 -2 1 -10q1 -20 1 -61v-920h-165v61q-31 -73 -103 -73q-105 0 -134 117q-11 47 -11 202v150q0 151 51 219q40 53 186 131v250q0 39 -30 39q-31 0 -31 -80v-133h-176zM209 205q0 -82 31 -82q30 0 30 41v477q-61 -37 -61 -139 v-297zM232 1491h168l-105 -178h-129z" />
<glyph unicode="&#xe2;" d="M33 883v96q0 258 207 258q204 0 204 -246q0 -2 1 -10q1 -20 1 -61v-920h-165v61q-31 -73 -103 -73q-105 0 -134 117q-11 47 -11 202v150q0 151 51 219q40 53 186 131v250q0 39 -30 39q-31 0 -31 -80v-133h-176zM209 205q0 -82 31 -82q30 0 30 41v477q-61 -37 -61 -139 v-297zM164 1491h160l113 -178h-140l-53 71l-53 -71h-140z" />
<glyph unicode="&#xe3;" d="M33 883v96q0 258 207 258q204 0 204 -246q0 -2 1 -10q1 -20 1 -61v-920h-165v61q-31 -73 -103 -73q-105 0 -134 117q-11 47 -11 202v150q0 151 51 219q40 53 186 131v250q0 39 -30 39q-31 0 -31 -80v-133h-176zM209 205q0 -82 31 -82q30 0 30 41v477q-61 -37 -61 -139 v-297zM326 1491h84v-49q0 -113 -76 -113q-12 0 -20 2l-103 25q-3 0 -6 1l-4 1q-37 0 -37 -43h-86v49q0 111 78 111q3 0 10 -1t10 -1l105 -23q2 0 5 -1t5 -1q35 0 35 43z" />
<glyph unicode="&#xe4;" d="M33 883v96q0 258 207 258q204 0 204 -246q0 -2 1 -10q1 -20 1 -61v-920h-165v61q-31 -73 -103 -73q-105 0 -134 117q-11 47 -11 202v150q0 151 51 219q40 53 186 131v250q0 39 -30 39q-31 0 -31 -80v-133h-176zM209 205q0 -82 31 -82q30 0 30 41v477q-61 -37 -61 -139 v-297zM273 1329v162h157v-162h-157zM60 1329v162h157v-162h-157z" />
<glyph unicode="&#xe5;" d="M178 1446q0 -62 62 -62q61 0 61 62q0 61 -61 61q-62 0 -62 -61zM82 1446q0 65 46.5 111.5t111.5 46.5q64 0 110.5 -46.5t46.5 -111.5q0 -66 -45.5 -112t-111.5 -46t-112 46t-46 112zM33 883v96q0 258 207 258q204 0 204 -246q0 -2 1 -10q1 -20 1 -61v-920h-165v61 q-31 -73 -105 -73q-104 0 -132 118q-11 47 -11 201v150q0 151 51 219q40 53 186 131v250q0 39 -30 39q-31 0 -31 -80v-133h-176zM209 205q0 -82 31 -82q30 0 30 41v477q-61 -37 -61 -139v-297z" />
<glyph unicode="&#xe6;" horiz-adv-x="717" d="M305 53q-30 -71 -127 -71q-105 0 -133 116q-12 47 -12 201v158q0 151 51 219q40 53 186 131v250q0 39 -30 39q-31 0 -31 -80v-133h-176v112q0 242 190 242q74 0 127 -51q49 51 121 51q211 0 211 -246v-387h-242v-399q0 -82 31 -82t31 43v313h180v-264q0 -233 -211 -233 q-115 0 -166 71zM502 748v268q0 80 -31 80t-31 -80v-268h62zM209 205q0 -82 31 -82q30 0 30 41v477q-61 -37 -61 -139v-297z" />
<glyph unicode="&#xe7;" horiz-adv-x="473" d="M33 979q0 258 211 258t211 -246v-184h-181v246q0 43 -30 43q-31 0 -31 -64v-827q0 -82 31 -82q30 0 30 43v313h181v-264q0 -233 -211 -233q-136 0 -181 96q-30 63 -30 221v680zM244 0h104q57 -84 57 -145q0 -150 -184 -150q-6 0 -16.5 1t-16.5 1v143h19q61 0 61 64 q0 36 -24 86z" />
<glyph unicode="&#xe8;" d="M274 748v268q0 81 -30 80q-31 -1 -31 -80v-268h61zM33 979q0 258 211 258t211 -246v-387h-242v-399q0 -82 31 -82q30 0 30 43v313h181v-264q0 -233 -211 -233q-136 0 -181 96q-30 63 -30 221v680zM88 1491h168l66 -178h-129z" />
<glyph unicode="&#xe9;" d="M274 748v268q0 81 -30 80q-31 -1 -31 -80v-268h61zM33 979q0 258 211 258t211 -246v-387h-242v-399q0 -82 31 -82q30 0 30 43v313h181v-264q0 -233 -211 -233q-136 0 -181 96q-30 63 -30 221v680zM232 1491h168l-105 -178h-129z" />
<glyph unicode="&#xea;" d="M274 748v268q0 81 -30 80q-31 -1 -31 -80v-268h61zM33 979q0 258 211 258t211 -246v-387h-242v-399q0 -82 31 -82q30 0 30 43v313h181v-264q0 -233 -211 -233q-136 0 -181 96q-30 63 -30 221v680zM164 1491h160l113 -178h-140l-53 71l-53 -71h-140z" />
<glyph unicode="&#xeb;" d="M274 748v268q0 81 -30 80q-31 -1 -31 -80v-268h61zM33 979q0 258 211 258t211 -246v-387h-242v-399q0 -82 31 -82q30 0 30 43v313h181v-264q0 -233 -211 -233q-136 0 -181 96q-30 63 -30 221v680zM273 1329v162h157v-162h-157zM60 1329v162h157v-162h-157z" />
<glyph unicode="&#xec;" horiz-adv-x="295" d="M57 1219h181v-1219h-181v1219zM-9 1491h168l66 -178h-129z" />
<glyph unicode="&#xed;" horiz-adv-x="295" d="M57 1219h181v-1219h-181v1219zM135 1491h168l-105 -178h-129z" />
<glyph unicode="&#xee;" horiz-adv-x="295" d="M57 1219h181v-1219h-181v1219zM67 1491h160l113 -178h-140l-53 71l-53 -71h-140z" />
<glyph unicode="&#xef;" horiz-adv-x="295" d="M57 1219h181v-1219h-181v1219zM176 1329v162h157v-162h-157zM-37 1329v162h157v-162h-157z" />
<glyph unicode="&#xf0;" d="M455 920v-705q0 -233 -211 -233q-136 0 -181 96q-30 63 -30 221v616q0 131 45 192q52 69 178 69h6q-4 19 -20 69l-158 -31l-16 78l136 29q-15 38 -48 96h163q11 -22 33 -65l135 28l17 -80l-111 -22q62 -155 62 -358zM213 205q0 -82 31 -82q30 0 30 41v819q0 51 -30 51 q-31 0 -31 -41v-788z" />
<glyph unicode="&#xf1;" horiz-adv-x="508" d="M291 0v1042q0 45 -33 45t-33 -65v-1022h-174v1219h162v-62q21 76 106 76q105 0 134 -118q12 -50 12 -202v-913h-174zM320 1491h84v-49q0 -113 -76 -113q-12 0 -20 2l-103 25q-3 0 -6 1l-4 1q-37 0 -37 -43h-86v49q0 111 78 111q3 0 10 -1t10 -1l105 -23q2 0 5 -1t5 -1 q35 0 35 43z" />
<glyph unicode="&#xf2;" d="M33 979q0 258 211 258t211 -246v-776q0 -233 -211 -233q-136 0 -181 96q-30 63 -30 221v680zM274 1047q0 49 -30 49q-31 0 -31 -39v-852q0 -82 31 -82q30 0 30 41v883zM88 1491h168l66 -178h-129z" />
<glyph unicode="&#xf3;" d="M33 979q0 258 211 258t211 -246v-776q0 -233 -211 -233q-136 0 -181 96q-30 63 -30 221v680zM274 1047q0 49 -30 49q-31 0 -31 -39v-852q0 -82 31 -82q30 0 30 41v883zM232 1491h168l-105 -178h-129z" />
<glyph unicode="&#xf4;" d="M33 979q0 258 211 258t211 -246v-776q0 -233 -211 -233q-136 0 -181 96q-30 63 -30 221v680zM274 1047q0 49 -30 49q-31 0 -31 -39v-852q0 -82 31 -82q30 0 30 41v883zM164 1491h160l113 -178h-140l-53 71l-53 -71h-140z" />
<glyph unicode="&#xf5;" d="M33 979q0 258 211 258t211 -246v-776q0 -233 -211 -233q-136 0 -181 96q-30 63 -30 221v680zM274 1047q0 49 -30 49q-31 0 -31 -39v-852q0 -82 31 -82q30 0 30 41v883zM326 1491h84v-49q0 -113 -76 -113q-12 0 -20 2l-103 25q-3 0 -6 1l-4 1q-37 0 -37 -43h-86v49 q0 111 78 111q3 0 10 -1t10 -1l105 -23q2 0 5 -1t5 -1q35 0 35 43z" />
<glyph unicode="&#xf6;" d="M33 979q0 258 211 258t211 -246v-776q0 -233 -211 -233q-136 0 -181 96q-30 63 -30 221v680zM274 1047q0 49 -30 49q-31 0 -31 -39v-852q0 -82 31 -82q30 0 30 41v883zM273 1329v162h157v-162h-157zM60 1329v162h157v-162h-157z" />
<glyph unicode="&#xf7;" horiz-adv-x="1706" d="M854 367q51 0 88 -37t37 -88q0 -52 -36.5 -88.5t-88.5 -36.5q-53 0 -89 36t-36 89q0 51 37 88t88 37zM1452 680v-139h-1198v139h1198zM854 1106q52 0 88.5 -37.5t36.5 -89.5t-36.5 -88.5t-88.5 -36.5t-88.5 36.5t-36.5 88.5t36.5 89.5t88.5 37.5z" />
<glyph unicode="&#xf8;" horiz-adv-x="567" d="M246 664l76 243v109q0 80 -37 80q-39 0 -39 -39v-393zM72 979q0 258 211 258q124 0 176 -86l35 86h94l-94 -236v-786q0 -233 -211 -233q-131 0 -177 86l-36 -86h-95l99 237v27q0 3 -1 9q-1 25 -1 48v676zM322 666l-76 -240v-221q0 -82 37 -82q39 0 39 39v504z" />
<glyph unicode="&#xf9;" horiz-adv-x="508" d="M217 1219v-1006q0 -82 33 -82q29 0 29 43v6q2 18 2 33v1006h174v-1219h-160v61q-24 -75 -107 -75q-105 0 -134 117q-11 47 -11 202v914h174zM98 1491h168l66 -178h-129z" />
<glyph unicode="&#xfa;" horiz-adv-x="508" d="M217 1219v-1006q0 -82 33 -82q29 0 29 43v6q2 18 2 33v1006h174v-1219h-160v61q-24 -75 -107 -75q-105 0 -134 117q-11 47 -11 202v914h174zM242 1491h168l-105 -178h-129z" />
<glyph unicode="&#xfb;" horiz-adv-x="508" d="M217 1219v-1006q0 -82 33 -82q29 0 29 43v6q2 18 2 33v1006h174v-1219h-160v61q-24 -75 -107 -75q-105 0 -134 117q-11 47 -11 202v914h174zM174 1491h160l113 -178h-140l-53 71l-53 -71h-140z" />
<glyph unicode="&#xfc;" horiz-adv-x="508" d="M217 1219v-1006q0 -82 33 -82q29 0 29 43v6q2 18 2 33v1006h174v-1219h-160v61q-24 -75 -107 -75q-105 0 -134 117q-11 47 -11 202v914h174zM283 1329v162h157v-162h-157zM70 1329v162h157v-162h-157z" />
<glyph unicode="&#xfd;" d="M39 1219h174v-678q0 -256 31 -375q30 124 30 375v678h177v-562q0 -200 -31 -393q-42 -265 -127 -364q-35 -41 -131 -41h-113v116h19q61 0 86 27q-115 252 -115 655v562zM232 1491h168l-105 -178h-129z" />
<glyph unicode="&#xfe;" horiz-adv-x="502" d="M227 -180h-176v1579h176v-213q34 47 97 47q104 0 133 -118q12 -50 12 -202v-608q0 -153 -12 -202q-29 -117 -133 -117q-71 0 -97 53v-219zM227 217q0 -80 31 -80t31 39v864q0 52 -31 52t-31 -41v-834z" />
<glyph unicode="&#xff;" d="M39 1219h174v-678q0 -256 31 -375q30 124 30 375v678h177v-562q0 -200 -31 -393q-42 -265 -127 -364q-35 -41 -131 -41h-113v116h19q61 0 86 27q-115 252 -115 655v562zM273 1329v162h157v-162h-157zM60 1329v162h157v-162h-157z" />
<glyph unicode="&#x102;" horiz-adv-x="553" d="M315 0v268h-77v-268h-191v270q0 785 119 1129h219q121 -353 121 -1129v-270h-191zM276 1167q-41 -255 -42 -729h85q-4 277 -8 365q-8 207 -35 364zM81 1668l104 -1q6 -71 90 -71t90 71l104 1q-2 -176 -194 -176t-194 176z" />
<glyph unicode="&#x103;" d="M33 883v96q0 258 207 258q204 0 204 -246q0 -2 1 -10q1 -20 1 -61v-920h-165v61q-31 -73 -103 -73q-105 0 -134 117q-11 47 -11 202v150q0 151 51 219q40 53 186 131v250q0 39 -30 39q-31 0 -31 -80v-133h-176zM209 205q0 -82 31 -82q30 0 30 41v477q-61 -37 -61 -139 v-297zM50 1491l104 -1q6 -71 90 -71t90 71l104 1q-2 -176 -194 -176t-194 176z" />
<glyph unicode="&#x106;" horiz-adv-x="545" d="M510 1065v-107h-195v185q0 104 -39 104q-38 0 -38 -104v-885q0 -104 38 -104q30 0 37 40q2 10 2 64v268h195v-194q0 -168 -35 -242q-52 -108 -199 -108t-198 108q-35 73 -35 242v733q0 169 35 242q51 110 198 110t199 -109q35 -74 35 -243zM260 1669h168l-105 -178h-129z " />
<glyph unicode="&#x107;" horiz-adv-x="473" d="M33 979q0 258 211 258t211 -246v-184h-181v246q0 43 -30 43q-31 0 -31 -64v-827q0 -82 31 -82q30 0 30 43v313h181v-264q0 -233 -211 -233q-136 0 -181 96q-30 63 -30 221v680zM226 1491h168l-105 -178h-129z" />
<glyph unicode="&#x10c;" horiz-adv-x="545" d="M510 1065v-107h-195v185q0 104 -39 104q-38 0 -38 -104v-885q0 -104 38 -104q30 0 37 40q2 10 2 64v268h195v-194q0 -168 -35 -242q-52 -108 -199 -108t-198 108q-35 73 -35 242v733q0 169 35 242q51 110 198 110t199 -109q35 -74 35 -243zM79 1669h140l53 -72l53 72h140 l-113 -178h-160z" />
<glyph unicode="&#x10d;" horiz-adv-x="473" d="M33 979q0 258 211 258t211 -246v-184h-181v246q0 43 -30 43q-31 0 -31 -64v-827q0 -82 31 -82q30 0 30 43v313h181v-264q0 -233 -211 -233q-136 0 -181 96q-30 63 -30 221v680zM45 1491h140l53 -72l53 72h140l-113 -178h-160z" />
<glyph unicode="&#x110;" horiz-adv-x="588" d="M250 733v-563h16q60 0 76 33q10 20 10 90v813q0 70 -11 91q-17 32 -77 32h-14v-377h57v-119h-57zM59 1399h244q147 0 199 -71q45 -60 45 -214v-829q0 -154 -45 -214q-52 -71 -199 -71h-244v733h-57v119h57v547z" />
<glyph unicode="&#x111;" horiz-adv-x="514" d="M274 1251h-120v80h120v68h177v-68h75v-80h-75v-1251h-162v61q-33 -75 -111 -75q-105 0 -133 117q-12 48 -12 202v572q0 154 12 202q28 117 133 117q74 0 96 -51v106zM213 209q0 -82 31 -82q30 0 30 39v829q0 52 -30 52q-31 0 -31 -41v-797z" />
<glyph unicode="&#x11e;" horiz-adv-x="559" d="M510 991h-195v152q0 104 -39 104q-38 0 -38 -104v-885q0 -104 38 -104q30 0 37 40q2 10 2 64v453h-43v170h238v-881h-98l-19 61q-36 -81 -153 -81q-132 0 -174 119q-23 66 -23 233v733q0 169 35 242q51 110 198 110t199 -109q35 -74 35 -243v-74zM87 1669l104 -1 q6 -71 90 -71t90 71l104 1q-2 -176 -194 -176t-194 176z" />
<glyph unicode="&#x11f;" horiz-adv-x="498" d="M444 168q0 -168 -40 -229q-51 -80 -205 -80q-113 0 -197 41l47 139q65 -43 127 -43q92 0 92 90v23q-25 -54 -90 -54q-103 0 -133 120q-12 51 -12 202v536q0 153 12 202q29 118 133 118q63 0 105 -72v58h161v-1051zM268 1044q0 43 -30 43q-31 0 -31 -81v-723q0 -80 31 -80 q30 0 30 39v802zM56 1491l104 -1q6 -71 90 -71t90 71l104 1q-2 -176 -194 -176t-194 176z" />
<glyph unicode="&#x128;" horiz-adv-x="317" d="M61 0v1399h195v-1399h-195zM244 1669h84v-49q0 -113 -76 -113q-12 0 -20 2l-103 25q-3 0 -6 1l-4 1q-37 0 -37 -43h-86v49q0 111 78 111q3 0 10 -1t10 -1l105 -23q2 0 5 -1t5 -1q35 0 35 43z" />
<glyph unicode="&#x129;" horiz-adv-x="295" d="M57 1219h181v-1219h-181v1219zM234 1491h84v-49q0 -113 -76 -113q-12 0 -20 2l-103 25q-3 0 -6 1l-4 1q-37 0 -37 -43h-86v49q0 111 78 111q3 0 10 -1t10 -1l105 -23q2 0 5 -1t5 -1q35 0 35 43z" />
<glyph unicode="&#x130;" horiz-adv-x="317" d="M61 0v1399h195v-1399h-195zM62 1669h194v-191h-194v191z" />
<glyph unicode="&#x131;" horiz-adv-x="295" d="M57 1219h181v-1219h-181v1219z" />
<glyph unicode="&#x141;" horiz-adv-x="455" d="M86 700l-86 -65v125l86 67v572h195v-490l92 72v-125l-92 -70v-616h184v-170h-379v700z" />
<glyph unicode="&#x142;" horiz-adv-x="332" d="M76 674l-76 -60v115l76 57v613h180v-533l76 58v-115l-76 -59v-750h-180v674z" />
<glyph unicode="&#x152;" horiz-adv-x="713" d="M692 1399v-170h-192v-350h182v-170h-182v-539h192v-170h-157q-43 0 -129.5 -9t-129.5 -9q-147 0 -198 108q-35 73 -35 242v733q0 169 35 242q51 110 198 110q73 0 149 -18h267zM238 258q0 -104 38 -104q30 0 37 40q2 10 2 64v885q0 104 -39 104q-38 0 -38 -104v-885z" />
<glyph unicode="&#x153;" horiz-adv-x="721" d="M358 1190q47 47 119 47q209 0 209 -246v-9q2 -40 2 -62v-316h-242v-399q0 -82 31 -82t31 43v313h180v-180q0 -27 -1 -54l-1 -30q0 -233 -199 -233q-76 0 -127 51q-47 -51 -127 -51q-129 0 -173 100q-27 64 -27 217v680q0 258 200 258q76 0 125 -47zM508 748v268 q0 80 -31 80t-31 -80v-268h62zM274 1047q0 49 -30 49q-31 0 -31 -39v-852q0 -82 31 -82q30 0 30 41v883z" />
<glyph unicode="&#x15e;" horiz-adv-x="543" d="M506 956h-195v187q0 104 -41 104q-39 0 -39 -104v-72q0 -121 93 -227q4 -4 16 -19l3 -3q163 -163 163 -363v-127q0 -168 -35 -242q-52 -108 -199 -108t-198 108q-35 73 -35 242v200h192v-274q0 -104 39 -104q41 0 41 104v123q0 112 -26 176q-25 59 -103 148 q-85 96 -113 164q-30 74 -30 196v76q0 276 233 276q147 0 199 -109q35 -74 35 -243v-109zM262 0h104q57 -84 57 -145q0 -150 -184 -150q-6 0 -16.5 1t-16.5 1v143h19q61 0 61 64q0 36 -24 86z" />
<glyph unicode="&#x15f;" horiz-adv-x="479" d="M451 215q0 -233 -211 -233q-136 0 -181 96q-30 63 -30 221v203h180v-297q0 -82 31 -82q30 0 30 43v188q0 143 -97 265l-20 25q-4 5 -14 17q-110 134 -110 259v116q0 93 60 148q57 53 151 53q211 0 211 -260v-135h-181v211q0 43 -30 43q-31 0 -31 -64v-90q0 -93 99 -210 q37 -43 61 -75q82 -107 82 -243v-199zM226 0h104q57 -84 57 -145q0 -150 -184 -150q-6 0 -16.5 1t-16.5 1v143h19q61 0 61 64q0 36 -24 86z" />
<glyph unicode="&#x160;" horiz-adv-x="543" d="M506 956h-195v187q0 104 -41 104q-39 0 -39 -104v-72q0 -121 93 -227q4 -4 16 -19l3 -3q163 -163 163 -363v-127q0 -168 -35 -242q-52 -108 -199 -108t-198 108q-35 73 -35 242v200h192v-274q0 -104 39 -104q41 0 41 104v123q0 112 -26 176q-25 59 -103 148 q-85 96 -113 164q-30 74 -30 196v76q0 276 233 276q147 0 199 -109q35 -74 35 -243v-109zM79 1669h140l53 -72l53 72h140l-113 -178h-160z" />
<glyph unicode="&#x161;" horiz-adv-x="479" d="M451 215q0 -233 -211 -233q-136 0 -181 96q-30 63 -30 221v203h180v-297q0 -82 31 -82q30 0 30 43v188q0 143 -97 265l-20 25q-4 5 -14 17q-110 134 -110 259v116q0 93 60 148q57 53 151 53q211 0 211 -260v-135h-181v211q0 43 -30 43q-31 0 -31 -64v-90q0 -93 99 -210 q37 -43 61 -75q82 -107 82 -243v-199zM47 1491h140l53 -72l53 72h140l-113 -178h-160z" />
<glyph unicode="&#x168;" horiz-adv-x="561" d="M242 258q0 -104 39 -104q38 0 38 104v1141h193v-1067q0 -167 -35 -241q-51 -109 -196 -109q-146 0 -198 108q-34 73 -34 242v1067h193v-1141zM358 1669h84v-49q0 -113 -76 -113q-12 0 -20 2l-103 25q-3 0 -6 1l-4 1q-37 0 -37 -43h-86v49q0 111 78 111q3 0 10 -1t10 -1 l105 -23q2 0 5 -1t5 -1q35 0 35 43z" />
<glyph unicode="&#x169;" horiz-adv-x="508" d="M217 1219v-1006q0 -82 33 -82q29 0 29 43v6q2 18 2 33v1006h174v-1219h-160v61q-24 -75 -107 -75q-105 0 -134 117q-11 47 -11 202v914h174zM326 1491h84v-49q0 -113 -76 -113q-12 0 -20 2l-103 25q-3 0 -6 1l-4 1q-37 0 -37 -43h-86v49q0 111 78 111q3 0 10 -1t10 -1 l105 -23q2 0 5 -1t5 -1q35 0 35 43z" />
<glyph unicode="&#x178;" d="M150 0v481q-132 350 -133 918h188v-125q0 -424 39 -557q39 154 39 561v121h190v-70q0 -466 -133 -848v-481h-190zM273 1507v162h157v-162h-157zM60 1507v162h157v-162h-157z" />
<glyph unicode="&#x17d;" horiz-adv-x="508" d="M47 1399h434v-185l-276 -1044h239v-170h-419v201l272 1028h-250v170zM61 1669h140l53 -72l53 72h140l-113 -178h-160z" />
<glyph unicode="&#x17e;" horiz-adv-x="473" d="M43 1219h389v-152l-237 -926h237v-141h-407v123l245 952h-227v144zM45 1491h140l53 -72l53 72h140l-113 -178h-160z" />
<glyph unicode="&#x192;" horiz-adv-x="541" d="M170 1065q0 151 31 220q46 104 176 104q38 0 114 -17l1 -151q-4 0 -11 1q-24 3 -37 3q-65 0 -82 -50q-8 -24 -8 -108v-227h158v-123h-158v-596q0 -151 -31 -221q-46 -105 -176 -105q-55 0 -131 21v151q3 0 13 -2q33 -6 49 -6q66 0 84 50q8 24 8 110v598h-150v123h150v225 z" />
<glyph unicode="&#x1a0;" horiz-adv-x="553" d="M238 258q0 -104 38 -104q30 0 37 40q2 10 2 64v885q0 104 -39 104q-38 0 -38 -104v-885zM582 1456v-215l-74 -97q2 -37 2 -79v-733q0 -168 -35 -242q-52 -108 -199 -108t-198 108q-35 73 -35 242v733q0 169 35 242q51 110 198 110q81 0 132 -31v70h174z" />
<glyph unicode="&#x1a1;" d="M274 1047q0 49 -30 49q-31 0 -31 -39v-852q0 -82 31 -82q30 0 30 41v883zM532 1271v-215l-77 -99v-742q0 -233 -211 -233q-136 0 -181 96q-30 63 -30 221v680q0 258 211 258q68 0 114 -24v58h174z" />
<glyph unicode="&#x1af;" horiz-adv-x="561" d="M597 1456v-215l-85 -110v-799q0 -167 -35 -241q-51 -109 -196 -109q-146 0 -198 108q-34 73 -34 242v1067h193v-1141q0 -104 39 -104q38 0 38 104v1141h104v57h174z" />
<glyph unicode="&#x1b0;" horiz-adv-x="508" d="M532 1271v-215l-77 -99v-957h-160v61q-24 -75 -107 -75q-105 0 -134 117q-11 47 -11 202v914h174v-1006q0 -82 33 -82q29 0 29 43v6q2 18 2 33v1006h77v52h174z" />
<glyph unicode="&#x2c6;" horiz-adv-x="1024" d="M432 1491h160l113 -178h-140l-53 71l-53 -71h-140z" />
<glyph unicode="&#x2c7;" horiz-adv-x="1024" d="M319 1491h140l53 -72l53 72h140l-113 -178h-160z" />
<glyph unicode="&#x2d8;" horiz-adv-x="1024" d="M317 1491l104 -1q6 -71 90 -71t90 71l104 1q-2 -176 -194 -176t-194 176z" />
<glyph unicode="&#x2d9;" horiz-adv-x="1024" d="M414 1491h194v-191h-194v191z" />
<glyph unicode="&#x2da;" horiz-adv-x="1024" d="M451 1460q0 -61 61 -61t61 61q0 62 -61 62t-61 -62zM354 1460q0 65 46.5 111.5t111.5 46.5t111.5 -46.5t46.5 -111.5q0 -66 -46 -111.5t-112 -45.5t-112 45.5t-46 111.5z" />
<glyph unicode="&#x2db;" horiz-adv-x="1024" d="M438 0h103q-25 -48 -25 -86q0 -64 70 -64h12v-145h-23q-196 0 -196 150q0 63 59 145z" />
<glyph unicode="&#x2dc;" horiz-adv-x="1024" d="M594 1491h84v-49q0 -113 -76 -113q-12 0 -20 2l-103 25q-3 0 -6 1l-4 1q-37 0 -37 -43h-86v49q0 111 78 111q3 0 10 -1t10 -1l105 -23q2 0 5 -1t5 -1q35 0 35 43z" />
<glyph unicode="&#x2dd;" horiz-adv-x="1024" d="M645 1491h141l-133 -178h-98zM446 1491h134l-101 -178h-108z" />
<glyph unicode="&#x394;" horiz-adv-x="1370" d="M684 1262l-418 -1084h836zM573 1473h224l579 -1473h-1382z" />
<glyph unicode="&#x3a9;" horiz-adv-x="1565" d="M1487 178v-178h-600v178q178 97 276.5 263t98.5 368q0 230 -123 376q-131 154 -357 154t-357 -155q-124 -145 -124 -375q0 -202 99.5 -368t277.5 -263v-178h-600v178h319q-303 267 -303 621q0 314 186 511q190 201 502 201q307 0 499 -198q189 -196 189 -504 q0 -199 -76 -351q-71 -143 -227 -280h320z" />
<glyph unicode="&#x3bc;" horiz-adv-x="1151" d="M385 1071l-129 -600q-14 -65 -14 -133q0 -207 200 -207q153 0 237 132q55 88 95 272l115 536h178l-156 -732l-4 -20q-18 -87 -18 -112q0 -68 72 -68q18 0 32 2l-31 -143q-48 -10 -108 -10q-116 0 -149 129q-89 -131 -271 -131q-157 0 -256 116l-110 -530h-181l318 1499 h180z" />
<glyph unicode="&#x3c0;" horiz-adv-x="1206" d="M1159 913h-182l-105 -487q-30 -139 -30 -188q0 -107 102 -107q26 0 100 10l-30 -141q-60 -16 -111 -16q-239 0 -239 202q0 92 55 351l80 376h-326l-194 -913h-181l195 913h-41q-106 0 -123 -133h-160q28 164 99.5 227.5t236.5 63.5h889z" />
<glyph unicode="&#x1ea0;" horiz-adv-x="553" d="M315 0v268h-77v-268h-191v270q0 785 119 1129h219q121 -353 121 -1129v-270h-191zM276 1167q-41 -255 -42 -729h85q-4 277 -8 365q-8 207 -35 364zM184 -133h188v-223h-188v223z" />
<glyph unicode="&#x1ea1;" d="M33 883v96q0 258 207 258q204 0 204 -246q0 -2 1 -10q1 -20 1 -61v-920h-165v61q-31 -73 -103 -73q-105 0 -134 117q-11 47 -11 202v150q0 151 51 219q40 53 186 131v250q0 39 -30 39q-31 0 -31 -80v-133h-176zM209 205q0 -82 31 -82q30 0 30 41v477q-61 -37 -61 -139 v-297zM149 -133h188v-223h-188v223z" />
<glyph unicode="&#x1ea2;" horiz-adv-x="553" d="M315 0v268h-77v-268h-191v270q0 785 119 1129h219q121 -353 121 -1129v-270h-191zM276 1167q-41 -255 -42 -729h85q-4 277 -8 365q-8 207 -35 364zM241 1483v8q0 38 12.5 58.5t24.5 40.5q10 15 10 39v24q0 29 -28 29t-28 -29v-33h-75v20q0 38 15 70q30 64 93 64t93 -39 q26 -33 26 -85q0 -49 -35 -96q-19 -26 -19 -71h-89z" />
<glyph unicode="&#x1ea3;" d="M33 883v96q0 258 207 258q204 0 204 -246q0 -2 1 -10q1 -20 1 -61v-920h-165v61q-31 -73 -103 -73q-105 0 -134 117q-11 47 -11 202v150q0 151 51 219q40 53 186 131v250q0 39 -30 39q-31 0 -31 -80v-133h-176zM209 205q0 -82 31 -82q30 0 30 41v477q-61 -37 -61 -139 v-297zM207 1305v8q0 38 12.5 58.5t24.5 40.5q10 15 10 39v24q0 29 -28 29t-28 -29v-33h-75v20q0 38 15 70q30 64 93 64t93 -39q26 -33 26 -85q0 -49 -35 -96q-19 -26 -19 -71h-89z" />
<glyph unicode="&#x1ea4;" horiz-adv-x="553" d="M315 0v268h-77v-268h-191v270q0 785 119 1129h219q121 -353 121 -1129v-270h-191zM276 1167q-41 -255 -42 -729h85q-4 277 -8 365q-8 207 -35 364zM196 1669h160l113 -178h-140l-53 71l-53 -71h-140zM228 1900h168l-105 -178h-129z" />
<glyph unicode="&#x1ea5;" d="M33 883v96q0 258 207 258q204 0 204 -246q0 -2 1 -10q1 -20 1 -61v-920h-165v61q-31 -73 -103 -73q-105 0 -134 117q-11 47 -11 202v150q0 151 51 219q40 53 186 131v250q0 39 -30 39q-31 0 -31 -80v-133h-176zM209 205q0 -82 31 -82q30 0 30 41v477q-61 -37 -61 -139 v-297zM164 1491h160l113 -178h-140l-53 71l-53 -71h-140zM196 1723h168l-105 -178h-129z" />
<glyph unicode="&#x1ea6;" horiz-adv-x="553" d="M315 0v268h-77v-268h-191v270q0 785 119 1129h219q121 -353 121 -1129v-270h-191zM276 1167q-41 -255 -42 -729h85q-4 277 -8 365q-8 207 -35 364zM196 1669h160l113 -178h-140l-53 71l-53 -71h-140zM159 1900h168l66 -178h-129z" />
<glyph unicode="&#x1ea7;" d="M33 883v96q0 258 207 258q204 0 204 -246q0 -2 1 -10q1 -20 1 -61v-920h-165v61q-31 -73 -103 -73q-105 0 -134 117q-11 47 -11 202v150q0 151 51 219q40 53 186 131v250q0 39 -30 39q-31 0 -31 -80v-133h-176zM209 205q0 -82 31 -82q30 0 30 41v477q-61 -37 -61 -139 v-297zM164 1491h160l113 -178h-140l-53 71l-53 -71h-140zM127 1722h168l66 -178h-129z" />
<glyph unicode="&#x1ea8;" horiz-adv-x="553" d="M315 0v268h-77v-268h-191v270q0 785 119 1129h219q121 -353 121 -1129v-270h-191zM276 1167q-41 -255 -42 -729h85q-4 277 -8 365q-8 207 -35 364zM196 1669h160l113 -178h-140l-53 71l-53 -71h-140zM392 1663v8q0 38 12.5 58.5t24.5 40.5q10 15 10 39v24q0 29 -28 29 t-28 -29v-33h-75v20q0 38 15 70q30 64 93 64t93 -39q26 -33 26 -85q0 -49 -35 -96q-19 -26 -19 -71h-89z" />
<glyph unicode="&#x1ea9;" d="M33 883v96q0 258 207 258q204 0 204 -246q0 -2 1 -10q1 -20 1 -61v-920h-165v61q-31 -73 -103 -73q-105 0 -134 117q-11 47 -11 202v150q0 151 51 219q40 53 186 131v250q0 39 -30 39q-31 0 -31 -80v-133h-176zM209 205q0 -82 31 -82q30 0 30 41v477q-61 -37 -61 -139 v-297zM164 1491h160l113 -178h-140l-53 71l-53 -71h-140zM359 1486v8q0 38 12.5 58.5t24.5 40.5q10 15 10 39v24q0 29 -28 29t-28 -29v-33h-75v20q0 38 15 70q30 64 93 64t93 -39q26 -33 26 -85q0 -49 -35 -96q-19 -26 -19 -71h-89z" />
<glyph unicode="&#x1eaa;" horiz-adv-x="553" d="M315 0v268h-77v-268h-191v270q0 785 119 1129h219q121 -353 121 -1129v-270h-191zM276 1167q-41 -255 -42 -729h85q-4 277 -8 365q-8 207 -35 364zM196 1669h160l113 -178h-140l-53 71l-53 -71h-140zM357 1899h84v-49q0 -113 -76 -113q-12 0 -20 2l-103 25q-3 0 -6 1 l-4 1q-37 0 -37 -43h-86v49q0 111 78 111q3 0 10 -1t10 -1l105 -23q2 0 5 -1t5 -1q35 0 35 43z" />
<glyph unicode="&#x1eab;" d="M33 883v96q0 258 207 258q204 0 204 -246q0 -2 1 -10q1 -20 1 -61v-920h-165v61q-31 -73 -103 -73q-105 0 -134 117q-11 47 -11 202v150q0 151 51 219q40 53 186 131v250q0 39 -30 39q-31 0 -31 -80v-133h-176zM209 205q0 -82 31 -82q30 0 30 41v477q-61 -37 -61 -139 v-297zM164 1491h160l113 -178h-140l-53 71l-53 -71h-140zM325 1720h84v-49q0 -113 -76 -113q-12 0 -20 2l-103 25q-3 0 -6 1l-4 1q-37 0 -37 -43h-86v49q0 111 78 111q3 0 10 -1t10 -1l105 -23q2 0 5 -1t5 -1q35 0 35 43z" />
<glyph unicode="&#x1eac;" horiz-adv-x="553" d="M315 0v268h-77v-268h-191v270q0 785 119 1129h219q121 -353 121 -1129v-270h-191zM276 1167q-41 -255 -42 -729h85q-4 277 -8 365q-8 207 -35 364zM196 1669h160l113 -178h-140l-53 71l-53 -71h-140zM184 -133h188v-223h-188v223z" />
<glyph unicode="&#x1ead;" d="M33 883v96q0 258 207 258q204 0 204 -246q0 -2 1 -10q1 -20 1 -61v-920h-165v61q-31 -73 -103 -73q-105 0 -134 117q-11 47 -11 202v150q0 151 51 219q40 53 186 131v250q0 39 -30 39q-31 0 -31 -80v-133h-176zM209 205q0 -82 31 -82q30 0 30 41v477q-61 -37 -61 -139 v-297zM164 1491h160l113 -178h-140l-53 71l-53 -71h-140zM149 -133h188v-223h-188v223z" />
<glyph unicode="&#x1eae;" horiz-adv-x="553" d="M315 0v268h-77v-268h-191v270q0 785 119 1129h219q121 -353 121 -1129v-270h-191zM276 1167q-41 -255 -42 -729h85q-4 277 -8 365q-8 207 -35 364zM81 1668l104 -1q6 -71 90 -71t90 71l104 1q-2 -176 -194 -176t-194 176zM267 1900h168l-105 -178h-129z" />
<glyph unicode="&#x1eaf;" d="M33 883v96q0 258 207 258q204 0 204 -246q0 -2 1 -10q1 -20 1 -61v-920h-165v61q-31 -73 -103 -73q-105 0 -134 117q-11 47 -11 202v150q0 151 51 219q40 53 186 131v250q0 39 -30 39q-31 0 -31 -80v-133h-176zM209 205q0 -82 31 -82q30 0 30 41v477q-61 -37 -61 -139 v-297zM50 1491l104 -1q6 -71 90 -71t90 71l104 1q-2 -176 -194 -176t-194 176zM236 1723h168l-105 -178h-129z" />
<glyph unicode="&#x1eb0;" horiz-adv-x="553" d="M315 0v268h-77v-268h-191v270q0 785 119 1129h219q121 -353 121 -1129v-270h-191zM276 1167q-41 -255 -42 -729h85q-4 277 -8 365q-8 207 -35 364zM81 1668l104 -1q6 -71 90 -71t90 71l104 1q-2 -176 -194 -176t-194 176zM114 1900h168l66 -178h-129z" />
<glyph unicode="&#x1eb1;" d="M33 883v96q0 258 207 258q204 0 204 -246q0 -2 1 -10q1 -20 1 -61v-920h-165v61q-31 -73 -103 -73q-105 0 -134 117q-11 47 -11 202v150q0 151 51 219q40 53 186 131v250q0 39 -30 39q-31 0 -31 -80v-133h-176zM209 205q0 -82 31 -82q30 0 30 41v477q-61 -37 -61 -139 v-297zM50 1491l104 -1q6 -71 90 -71t90 71l104 1q-2 -176 -194 -176t-194 176zM83 1722h168l66 -178h-129z" />
<glyph unicode="&#x1eb2;" horiz-adv-x="553" d="M315 0v268h-77v-268h-191v270q0 785 119 1129h219q121 -353 121 -1129v-270h-191zM276 1167q-41 -255 -42 -729h85q-4 277 -8 365q-8 207 -35 364zM81 1668l104 -1q6 -71 90 -71t90 71l104 1q-2 -176 -194 -176t-194 176zM241 1663v8q0 38 12.5 58.5t24.5 40.5 q10 15 10 39v24q0 29 -28 29t-28 -29v-33h-75v20q0 38 15 70q30 64 93 64t93 -39q26 -33 26 -85q0 -49 -35 -96q-19 -26 -19 -71h-89z" />
<glyph unicode="&#x1eb3;" d="M33 883v96q0 258 207 258q204 0 204 -246q0 -2 1 -10q1 -20 1 -61v-920h-165v61q-31 -73 -103 -73q-105 0 -134 117q-11 47 -11 202v150q0 151 51 219q40 53 186 131v250q0 39 -30 39q-31 0 -31 -80v-133h-176zM209 205q0 -82 31 -82q30 0 30 41v477q-61 -37 -61 -139 v-297zM50 1491l104 -1q6 -71 90 -71t90 71l104 1q-2 -176 -194 -176t-194 176zM210 1486v8q0 38 12.5 58.5t24.5 40.5q10 15 10 39v24q0 29 -28 29t-28 -29v-33h-75v20q0 38 15 70q30 64 93 64t93 -39q26 -33 26 -85q0 -49 -35 -96q-19 -26 -19 -71h-89z" />
<glyph unicode="&#x1eb4;" horiz-adv-x="553" d="M315 0v268h-77v-268h-191v270q0 785 119 1129h219q121 -353 121 -1129v-270h-191zM276 1167q-41 -255 -42 -729h85q-4 277 -8 365q-8 207 -35 364zM81 1668l104 -1q6 -71 90 -71t90 71l104 1q-2 -176 -194 -176t-194 176zM356 1897h84v-49q0 -113 -76 -113q-12 0 -20 2 l-103 25q-3 0 -6 1l-4 1q-37 0 -37 -43h-86v49q0 111 78 111q3 0 10 -1t10 -1l105 -23q2 0 5 -1t5 -1q35 0 35 43z" />
<glyph unicode="&#x1eb5;" d="M33 883v96q0 258 207 258q204 0 204 -246q0 -2 1 -10q1 -20 1 -61v-920h-165v61q-31 -73 -103 -73q-105 0 -134 117q-11 47 -11 202v150q0 151 51 219q40 53 186 131v250q0 39 -30 39q-31 0 -31 -80v-133h-176zM209 205q0 -82 31 -82q30 0 30 41v477q-61 -37 -61 -139 v-297zM50 1491l104 -1q6 -71 90 -71t90 71l104 1q-2 -176 -194 -176t-194 176zM325 1720h84v-49q0 -113 -76 -113q-12 0 -20 2l-103 25q-3 0 -6 1l-4 1q-37 0 -37 -43h-86v49q0 111 78 111q3 0 10 -1t10 -1l105 -23q2 0 5 -1t5 -1q35 0 35 43z" />
<glyph unicode="&#x1eb6;" horiz-adv-x="553" d="M315 0v268h-77v-268h-191v270q0 785 119 1129h219q121 -353 121 -1129v-270h-191zM276 1167q-41 -255 -42 -729h85q-4 277 -8 365q-8 207 -35 364zM81 1668l104 -1q6 -71 90 -71t90 71l104 1q-2 -176 -194 -176t-194 176zM184 -133h188v-223h-188v223z" />
<glyph unicode="&#x1eb7;" d="M33 883v96q0 258 207 258q204 0 204 -246q0 -2 1 -10q1 -20 1 -61v-920h-165v61q-31 -73 -103 -73q-105 0 -134 117q-11 47 -11 202v150q0 151 51 219q40 53 186 131v250q0 39 -30 39q-31 0 -31 -80v-133h-176zM209 205q0 -82 31 -82q30 0 30 41v477q-61 -37 -61 -139 v-297zM50 1491l104 -1q6 -71 90 -71t90 71l104 1q-2 -176 -194 -176t-194 176zM149 -133h188v-223h-188v223z" />
<glyph unicode="&#x1eb8;" horiz-adv-x="461" d="M57 0v1399h381v-170h-192v-350h182v-170h-182v-539h192v-170h-381zM151 -133h188v-223h-188v223z" />
<glyph unicode="&#x1eb9;" d="M274 748v268q0 81 -30 80q-31 -1 -31 -80v-268h61zM33 979q0 258 211 258t211 -246v-387h-242v-399q0 -82 31 -82q30 0 30 43v313h181v-264q0 -233 -211 -233q-136 0 -181 96q-30 63 -30 221v680zM149 -133h188v-223h-188v223z" />
<glyph unicode="&#x1eba;" horiz-adv-x="461" d="M57 0v1399h381v-170h-192v-350h182v-170h-182v-539h192v-170h-381zM209 1483v8q0 38 12.5 58.5t24.5 40.5q10 15 10 39v24q0 29 -28 29t-28 -29v-33h-75v20q0 38 15 70q30 64 93 64t93 -39q26 -33 26 -85q0 -49 -35 -96q-19 -26 -19 -71h-89z" />
<glyph unicode="&#x1ebb;" d="M274 748v268q0 81 -30 80q-31 -1 -31 -80v-268h61zM33 979q0 258 211 258t211 -246v-387h-242v-399q0 -82 31 -82q30 0 30 43v313h181v-264q0 -233 -211 -233q-136 0 -181 96q-30 63 -30 221v680zM207 1305v8q0 38 12.5 58.5t24.5 40.5q10 15 10 39v24q0 29 -28 29 t-28 -29v-33h-75v20q0 38 15 70q30 64 93 64t93 -39q26 -33 26 -85q0 -49 -35 -96q-19 -26 -19 -71h-89z" />
<glyph unicode="&#x1ebc;" horiz-adv-x="461" d="M57 0v1399h381v-170h-192v-350h182v-170h-182v-539h192v-170h-381zM326 1669h84v-49q0 -113 -76 -113q-12 0 -20 2l-103 25q-3 0 -6 1l-4 1q-37 0 -37 -43h-86v49q0 111 78 111q3 0 10 -1t10 -1l105 -23q2 0 5 -1t5 -1q35 0 35 43z" />
<glyph unicode="&#x1ebd;" d="M274 748v268q0 81 -30 80q-31 -1 -31 -80v-268h61zM33 979q0 258 211 258t211 -246v-387h-242v-399q0 -82 31 -82q30 0 30 43v313h181v-264q0 -233 -211 -233q-136 0 -181 96q-30 63 -30 221v680zM326 1491h84v-49q0 -113 -76 -113q-12 0 -20 2l-103 25q-3 0 -6 1l-4 1 q-37 0 -37 -43h-86v49q0 111 78 111q3 0 10 -1t10 -1l105 -23q2 0 5 -1t5 -1q35 0 35 43z" />
<glyph unicode="&#x1ebe;" horiz-adv-x="461" d="M57 0v1399h381v-170h-192v-350h182v-170h-182v-539h192v-170h-381zM162 1669h160l113 -178h-140l-53 71l-53 -71h-140zM195 1902h168l-105 -178h-129z" />
<glyph unicode="&#x1ebf;" d="M274 748v268q0 81 -30 80q-31 -1 -31 -80v-268h61zM33 979q0 258 211 258t211 -246v-387h-242v-399q0 -82 31 -82q30 0 30 43v313h181v-264q0 -233 -211 -233q-136 0 -181 96q-30 63 -30 221v680zM164 1491h160l113 -178h-140l-53 71l-53 -71h-140zM196 1723h168 l-105 -178h-129z" />
<glyph unicode="&#x1ec0;" horiz-adv-x="461" d="M57 0v1399h381v-170h-192v-350h182v-170h-182v-539h192v-170h-381zM162 1669h160l113 -178h-140l-53 71l-53 -71h-140zM125 1900h168l66 -178h-129z" />
<glyph unicode="&#x1ec1;" d="M274 748v268q0 81 -30 80q-31 -1 -31 -80v-268h61zM33 979q0 258 211 258t211 -246v-387h-242v-399q0 -82 31 -82q30 0 30 43v313h181v-264q0 -233 -211 -233q-136 0 -181 96q-30 63 -30 221v680zM164 1491h160l113 -178h-140l-53 71l-53 -71h-140zM127 1722h168l66 -178 h-129z" />
<glyph unicode="&#x1ec2;" horiz-adv-x="461" d="M57 0v1399h381v-170h-192v-350h182v-170h-182v-539h192v-170h-381zM162 1669h160l113 -178h-140l-53 71l-53 -71h-140zM357 1665v8q0 38 12.5 58.5t24.5 40.5q10 15 10 39v24q0 29 -28 29t-28 -29v-33h-75v20q0 38 15 70q30 64 93 64t93 -39q26 -33 26 -85q0 -49 -35 -96 q-19 -26 -19 -71h-89z" />
<glyph unicode="&#x1ec3;" d="M274 748v268q0 81 -30 80q-31 -1 -31 -80v-268h61zM33 979q0 258 211 258t211 -246v-387h-242v-399q0 -82 31 -82q30 0 30 43v313h181v-264q0 -233 -211 -233q-136 0 -181 96q-30 63 -30 221v680zM164 1491h160l113 -178h-140l-53 71l-53 -71h-140zM359 1486v8 q0 38 12.5 58.5t24.5 40.5q10 15 10 39v24q0 29 -28 29t-28 -29v-33h-75v20q0 38 15 70q30 64 93 64t93 -39q26 -33 26 -85q0 -49 -35 -96q-19 -26 -19 -71h-89z" />
<glyph unicode="&#x1ec4;" horiz-adv-x="461" d="M57 0v1399h381v-170h-192v-350h182v-170h-182v-539h192v-170h-381zM162 1669h160l113 -178h-140l-53 71l-53 -71h-140zM322 1898h84v-49q0 -113 -76 -113q-12 0 -20 2l-103 25q-3 0 -6 1l-4 1q-37 0 -37 -43h-86v49q0 111 78 111q3 0 10 -1t10 -1l105 -23q2 0 5 -1t5 -1 q35 0 35 43z" />
<glyph unicode="&#x1ec5;" d="M274 748v268q0 81 -30 80q-31 -1 -31 -80v-268h61zM33 979q0 258 211 258t211 -246v-387h-242v-399q0 -82 31 -82q30 0 30 43v313h181v-264q0 -233 -211 -233q-136 0 -181 96q-30 63 -30 221v680zM164 1491h160l113 -178h-140l-53 71l-53 -71h-140zM325 1720h84v-49 q0 -113 -76 -113q-12 0 -20 2l-103 25q-3 0 -6 1l-4 1q-37 0 -37 -43h-86v49q0 111 78 111q3 0 10 -1t10 -1l105 -23q2 0 5 -1t5 -1q35 0 35 43z" />
<glyph unicode="&#x1ec6;" horiz-adv-x="461" d="M57 0v1399h381v-170h-192v-350h182v-170h-182v-539h192v-170h-381zM162 1669h160l113 -178h-140l-53 71l-53 -71h-140zM151 -133h188v-223h-188v223z" />
<glyph unicode="&#x1ec7;" d="M274 748v268q0 81 -30 80q-31 -1 -31 -80v-268h61zM33 979q0 258 211 258t211 -246v-387h-242v-399q0 -82 31 -82q30 0 30 43v313h181v-264q0 -233 -211 -233q-136 0 -181 96q-30 63 -30 221v680zM164 1491h160l113 -178h-140l-53 71l-53 -71h-140zM149 -133h188v-223 h-188v223z" />
<glyph unicode="&#x1ec8;" horiz-adv-x="317" d="M61 0v1399h195v-1399h-195zM130 1483v8q0 38 12.5 58.5t24.5 40.5q10 15 10 39v24q0 29 -28 29t-28 -29v-33h-75v20q0 38 15 70q30 64 93 64t93 -39q26 -33 26 -85q0 -49 -35 -96q-19 -26 -19 -71h-89z" />
<glyph unicode="&#x1ec9;" horiz-adv-x="295" d="M57 1219h181v-1219h-181v1219zM117 1305v8q0 38 12.5 58.5t24.5 40.5q10 15 10 39v24q0 29 -28 29t-28 -29v-33h-75v20q0 38 15 70q30 64 93 64t93 -39q26 -33 26 -85q0 -49 -35 -96q-19 -26 -19 -71h-89z" />
<glyph unicode="&#x1eca;" horiz-adv-x="317" d="M61 0v1399h195v-1399h-195zM67 -133h188v-223h-188v223z" />
<glyph unicode="&#x1ecb;" horiz-adv-x="285" d="M51 1219h180v-1219h-180v1219zM51 1417h180v-157h-180v157zM50 -133h188v-223h-188v223z" />
<glyph unicode="&#x1ecc;" horiz-adv-x="553" d="M238 258q0 -104 38 -104q30 0 37 40q2 10 2 64v885q0 104 -39 104q-38 0 -38 -104v-885zM43 1065q0 169 35 242q51 110 198 110t199 -109q35 -74 35 -243v-733q0 -168 -35 -242q-52 -108 -199 -108t-198 108q-35 73 -35 242v733zM182 -133h188v-223h-188v223z" />
<glyph unicode="&#x1ecd;" d="M33 979q0 258 211 258t211 -246v-776q0 -233 -211 -233q-136 0 -181 96q-30 63 -30 221v680zM274 1047q0 49 -30 49q-31 0 -31 -39v-852q0 -82 31 -82q30 0 30 41v883zM149 -133h188v-223h-188v223z" />
<glyph unicode="&#x1ece;" horiz-adv-x="553" d="M238 258q0 -104 38 -104q30 0 37 40q2 10 2 64v885q0 104 -39 104q-38 0 -38 -104v-885zM43 1065q0 169 35 242q51 110 198 110t199 -109q35 -74 35 -243v-733q0 -168 -35 -242q-52 -108 -199 -108t-198 108q-35 73 -35 242v733zM240 1483v8q0 38 12.5 58.5t24.5 40.5 q10 15 10 39v24q0 29 -28 29t-28 -29v-33h-75v20q0 38 15 70q30 64 93 64t93 -39q26 -33 26 -85q0 -49 -35 -96q-19 -26 -19 -71h-89z" />
<glyph unicode="&#x1ecf;" d="M33 979q0 258 211 258t211 -246v-776q0 -233 -211 -233q-136 0 -181 96q-30 63 -30 221v680zM274 1047q0 49 -30 49q-31 0 -31 -39v-852q0 -82 31 -82q30 0 30 41v883zM207 1305v8q0 38 12.5 58.5t24.5 40.5q10 15 10 39v24q0 29 -28 29t-28 -29v-33h-75v20q0 38 15 70 q30 64 93 64t93 -39q26 -33 26 -85q0 -49 -35 -96q-19 -26 -19 -71h-89z" />
<glyph unicode="&#x1ed0;" horiz-adv-x="553" d="M238 258q0 -104 38 -104q30 0 37 40q2 10 2 64v885q0 104 -39 104q-38 0 -38 -104v-885zM43 1065q0 169 35 242q51 110 198 110t199 -109q35 -74 35 -243v-733q0 -168 -35 -242q-52 -108 -199 -108t-198 108q-35 73 -35 242v733zM196 1669h160l113 -178h-140l-53 71 l-53 -71h-140zM229 1901h168l-105 -178h-129z" />
<glyph unicode="&#x1ed1;" d="M33 979q0 258 211 258t211 -246v-776q0 -233 -211 -233q-136 0 -181 96q-30 63 -30 221v680zM274 1047q0 49 -30 49q-31 0 -31 -39v-852q0 -82 31 -82q30 0 30 41v883zM164 1491h160l113 -178h-140l-53 71l-53 -71h-140zM196 1723h168l-105 -178h-129z" />
<glyph unicode="&#x1ed2;" horiz-adv-x="553" d="M238 258q0 -104 38 -104q30 0 37 40q2 10 2 64v885q0 104 -39 104q-38 0 -38 -104v-885zM43 1065q0 169 35 242q51 110 198 110t199 -109q35 -74 35 -243v-733q0 -168 -35 -242q-52 -108 -199 -108t-198 108q-35 73 -35 242v733zM196 1669h160l113 -178h-140l-53 71 l-53 -71h-140zM158 1900h168l66 -178h-129z" />
<glyph unicode="&#x1ed3;" d="M33 979q0 258 211 258t211 -246v-776q0 -233 -211 -233q-136 0 -181 96q-30 63 -30 221v680zM274 1047q0 49 -30 49q-31 0 -31 -39v-852q0 -82 31 -82q30 0 30 41v883zM164 1491h160l113 -178h-140l-53 71l-53 -71h-140zM127 1722h168l66 -178h-129z" />
<glyph unicode="&#x1ed4;" horiz-adv-x="553" d="M238 258q0 -104 38 -104q30 0 37 40q2 10 2 64v885q0 104 -39 104q-38 0 -38 -104v-885zM43 1065q0 169 35 242q51 110 198 110t199 -109q35 -74 35 -243v-733q0 -168 -35 -242q-52 -108 -199 -108t-198 108q-35 73 -35 242v733zM196 1669h160l113 -178h-140l-53 71 l-53 -71h-140zM391 1665v8q0 38 12.5 58.5t24.5 40.5q10 15 10 39v24q0 29 -28 29t-28 -29v-33h-75v20q0 38 15 70q30 64 93 64t93 -39q26 -33 26 -85q0 -49 -35 -96q-19 -26 -19 -71h-89z" />
<glyph unicode="&#x1ed5;" d="M33 979q0 258 211 258t211 -246v-776q0 -233 -211 -233q-136 0 -181 96q-30 63 -30 221v680zM274 1047q0 49 -30 49q-31 0 -31 -39v-852q0 -82 31 -82q30 0 30 41v883zM164 1491h160l113 -178h-140l-53 71l-53 -71h-140zM359 1486v8q0 38 12.5 58.5t24.5 40.5 q10 15 10 39v24q0 29 -28 29t-28 -29v-33h-75v20q0 38 15 70q30 64 93 64t93 -39q26 -33 26 -85q0 -49 -35 -96q-19 -26 -19 -71h-89z" />
<glyph unicode="&#x1ed6;" horiz-adv-x="553" d="M238 258q0 -104 38 -104q30 0 37 40q2 10 2 64v885q0 104 -39 104q-38 0 -38 -104v-885zM43 1065q0 169 35 242q51 110 198 110t199 -109q35 -74 35 -243v-733q0 -168 -35 -242q-52 -108 -199 -108t-198 108q-35 73 -35 242v733zM196 1669h160l113 -178h-140l-53 71 l-53 -71h-140zM357 1898h84v-49q0 -113 -76 -113q-12 0 -20 2l-103 25q-3 0 -6 1l-4 1q-37 0 -37 -43h-86v49q0 111 78 111q3 0 10 -1t10 -1l105 -23q2 0 5 -1t5 -1q35 0 35 43z" />
<glyph unicode="&#x1ed7;" d="M33 979q0 258 211 258t211 -246v-776q0 -233 -211 -233q-136 0 -181 96q-30 63 -30 221v680zM274 1047q0 49 -30 49q-31 0 -31 -39v-852q0 -82 31 -82q30 0 30 41v883zM164 1491h160l113 -178h-140l-53 71l-53 -71h-140zM325 1720h84v-49q0 -113 -76 -113q-12 0 -20 2 l-103 25q-3 0 -6 1l-4 1q-37 0 -37 -43h-86v49q0 111 78 111q3 0 10 -1t10 -1l105 -23q2 0 5 -1t5 -1q35 0 35 43z" />
<glyph unicode="&#x1ed8;" horiz-adv-x="553" d="M238 258q0 -104 38 -104q30 0 37 40q2 10 2 64v885q0 104 -39 104q-38 0 -38 -104v-885zM43 1065q0 169 35 242q51 110 198 110t199 -109q35 -74 35 -243v-733q0 -168 -35 -242q-52 -108 -199 -108t-198 108q-35 73 -35 242v733zM196 1669h160l113 -178h-140l-53 71 l-53 -71h-140zM182 -133h188v-223h-188v223z" />
<glyph unicode="&#x1ed9;" d="M33 979q0 258 211 258t211 -246v-776q0 -233 -211 -233q-136 0 -181 96q-30 63 -30 221v680zM274 1047q0 49 -30 49q-31 0 -31 -39v-852q0 -82 31 -82q30 0 30 41v883zM164 1491h160l113 -178h-140l-53 71l-53 -71h-140zM149 -133h188v-223h-188v223z" />
<glyph unicode="&#x1eda;" horiz-adv-x="553" d="M238 258q0 -104 38 -104q30 0 37 40q2 10 2 64v885q0 104 -39 104q-38 0 -38 -104v-885zM582 1456v-215l-74 -97q2 -37 2 -79v-733q0 -168 -35 -242q-52 -108 -199 -108t-198 108q-35 73 -35 242v733q0 169 35 242q51 110 198 110q81 0 132 -31v70h174zM264 1669h168 l-105 -178h-129z" />
<glyph unicode="&#x1edb;" d="M274 1047q0 49 -30 49q-31 0 -31 -39v-852q0 -82 31 -82q30 0 30 41v883zM532 1271v-215l-77 -99v-742q0 -233 -211 -233q-136 0 -181 96q-30 63 -30 221v680q0 258 211 258q68 0 114 -24v58h174zM232 1491h168l-105 -178h-129z" />
<glyph unicode="&#x1edc;" horiz-adv-x="553" d="M238 258q0 -104 38 -104q30 0 37 40q2 10 2 64v885q0 104 -39 104q-38 0 -38 -104v-885zM582 1456v-215l-74 -97q2 -37 2 -79v-733q0 -168 -35 -242q-52 -108 -199 -108t-198 108q-35 73 -35 242v733q0 169 35 242q51 110 198 110q81 0 132 -31v70h174zM120 1669h168 l66 -178h-129z" />
<glyph unicode="&#x1edd;" d="M274 1047q0 49 -30 49q-31 0 -31 -39v-852q0 -82 31 -82q30 0 30 41v883zM532 1271v-215l-77 -99v-742q0 -233 -211 -233q-136 0 -181 96q-30 63 -30 221v680q0 258 211 258q68 0 114 -24v58h174zM88 1491h168l66 -178h-129z" />
<glyph unicode="&#x1ede;" horiz-adv-x="553" d="M238 258q0 -104 38 -104q30 0 37 40q2 10 2 64v885q0 104 -39 104q-38 0 -38 -104v-885zM582 1456v-215l-74 -97q2 -37 2 -79v-733q0 -168 -35 -242q-52 -108 -199 -108t-198 108q-35 73 -35 242v733q0 169 35 242q51 110 198 110q81 0 132 -31v70h174zM240 1483v8 q0 38 12.5 58.5t24.5 40.5q10 15 10 39v24q0 29 -28 29t-28 -29v-33h-75v20q0 38 15 70q30 64 93 64t93 -39q26 -33 26 -85q0 -49 -35 -96q-19 -26 -19 -71h-89z" />
<glyph unicode="&#x1edf;" d="M274 1047q0 49 -30 49q-31 0 -31 -39v-852q0 -82 31 -82q30 0 30 41v883zM532 1271v-215l-77 -99v-742q0 -233 -211 -233q-136 0 -181 96q-30 63 -30 221v680q0 258 211 258q68 0 114 -24v58h174zM207 1305v8q0 38 12.5 58.5t24.5 40.5q10 15 10 39v24q0 29 -28 29 t-28 -29v-33h-75v20q0 38 15 70q30 64 93 64t93 -39q26 -33 26 -85q0 -49 -35 -96q-19 -26 -19 -71h-89z" />
<glyph unicode="&#x1ee0;" horiz-adv-x="553" d="M238 258q0 -104 38 -104q30 0 37 40q2 10 2 64v885q0 104 -39 104q-38 0 -38 -104v-885zM582 1456v-215l-74 -97q2 -37 2 -79v-733q0 -168 -35 -242q-52 -108 -199 -108t-198 108q-35 73 -35 242v733q0 169 35 242q51 110 198 110q81 0 132 -31v70h174zM358 1669h84v-49 q0 -113 -76 -113q-12 0 -20 2l-103 25q-3 0 -6 1l-4 1q-37 0 -37 -43h-86v49q0 111 78 111q3 0 10 -1t10 -1l105 -23q2 0 5 -1t5 -1q35 0 35 43z" />
<glyph unicode="&#x1ee1;" d="M274 1047q0 49 -30 49q-31 0 -31 -39v-852q0 -82 31 -82q30 0 30 41v883zM532 1271v-215l-77 -99v-742q0 -233 -211 -233q-136 0 -181 96q-30 63 -30 221v680q0 258 211 258q68 0 114 -24v58h174zM326 1491h84v-49q0 -113 -76 -113q-12 0 -20 2l-103 25q-3 0 -6 1l-4 1 q-37 0 -37 -43h-86v49q0 111 78 111q3 0 10 -1t10 -1l105 -23q2 0 5 -1t5 -1q35 0 35 43z" />
<glyph unicode="&#x1ee2;" horiz-adv-x="553" d="M238 258q0 -104 38 -104q30 0 37 40q2 10 2 64v885q0 104 -39 104q-38 0 -38 -104v-885zM582 1456v-215l-74 -97q2 -37 2 -79v-733q0 -168 -35 -242q-52 -108 -199 -108t-198 108q-35 73 -35 242v733q0 169 35 242q51 110 198 110q81 0 132 -31v70h174zM182 -133h188 v-223h-188v223z" />
<glyph unicode="&#x1ee3;" d="M274 1047q0 49 -30 49q-31 0 -31 -39v-852q0 -82 31 -82q30 0 30 41v883zM532 1271v-215l-77 -99v-742q0 -233 -211 -233q-136 0 -181 96q-30 63 -30 221v680q0 258 211 258q68 0 114 -24v58h174zM149 -133h188v-223h-188v223z" />
<glyph unicode="&#x1ee4;" horiz-adv-x="561" d="M242 258q0 -104 39 -104q38 0 38 104v1141h193v-1067q0 -167 -35 -241q-51 -109 -196 -109q-146 0 -198 108q-34 73 -34 242v1067h193v-1141zM189 -133h188v-223h-188v223z" />
<glyph unicode="&#x1ee5;" horiz-adv-x="508" d="M217 1219v-1006q0 -82 33 -82q29 0 29 43v6q2 18 2 33v1006h174v-1219h-160v61q-24 -75 -107 -75q-105 0 -134 117q-11 47 -11 202v914h174zM156 -133h188v-223h-188v223z" />
<glyph unicode="&#x1ee6;" horiz-adv-x="561" d="M242 258q0 -104 39 -104q38 0 38 104v1141h193v-1067q0 -167 -35 -241q-51 -109 -196 -109q-146 0 -198 108q-34 73 -34 242v1067h193v-1141zM240 1483v8q0 38 12.5 58.5t24.5 40.5q10 15 10 39v24q0 29 -28 29t-28 -29v-33h-75v20q0 38 15 70q30 64 93 64t93 -39 q26 -33 26 -85q0 -49 -35 -96q-19 -26 -19 -71h-89z" />
<glyph unicode="&#x1ee7;" horiz-adv-x="508" d="M217 1219v-1006q0 -82 33 -82q29 0 29 43v6q2 18 2 33v1006h174v-1219h-160v61q-24 -75 -107 -75q-105 0 -134 117q-11 47 -11 202v914h174zM207 1305v8q0 38 12.5 58.5t24.5 40.5q10 15 10 39v24q0 29 -28 29t-28 -29v-33h-75v20q0 38 15 70q30 64 93 64t93 -39 q26 -33 26 -85q0 -49 -35 -96q-19 -26 -19 -71h-89z" />
<glyph unicode="&#x1ee8;" horiz-adv-x="561" d="M597 1456v-215l-85 -110v-799q0 -167 -35 -241q-51 -109 -196 -109q-146 0 -198 108q-34 73 -34 242v1067h193v-1141q0 -104 39 -104q38 0 38 104v1141h104v57h174zM269 1669h168l-105 -178h-129z" />
<glyph unicode="&#x1ee9;" horiz-adv-x="508" d="M532 1271v-215l-77 -99v-957h-160v61q-24 -75 -107 -75q-105 0 -134 117q-11 47 -11 202v914h174v-1006q0 -82 33 -82q29 0 29 43v6q2 18 2 33v1006h77v52h174zM242 1491h168l-105 -178h-129z" />
<glyph unicode="&#x1eea;" horiz-adv-x="561" d="M597 1456v-215l-85 -110v-799q0 -167 -35 -241q-51 -109 -196 -109q-146 0 -198 108q-34 73 -34 242v1067h193v-1141q0 -104 39 -104q38 0 38 104v1141h104v57h174zM125 1669h168l66 -178h-129z" />
<glyph unicode="&#x1eeb;" horiz-adv-x="508" d="M532 1271v-215l-77 -99v-957h-160v61q-24 -75 -107 -75q-105 0 -134 117q-11 47 -11 202v914h174v-1006q0 -82 33 -82q29 0 29 43v6q2 18 2 33v1006h77v52h174zM98 1491h168l66 -178h-129z" />
<glyph unicode="&#x1eec;" horiz-adv-x="561" d="M597 1456v-215l-85 -110v-799q0 -167 -35 -241q-51 -109 -196 -109q-146 0 -198 108q-34 73 -34 242v1067h193v-1141q0 -104 39 -104q38 0 38 104v1141h104v57h174zM240 1483v8q0 38 12.5 58.5t24.5 40.5q10 15 10 39v24q0 29 -28 29t-28 -29v-33h-75v20q0 38 15 70 q30 64 93 64t93 -39q26 -33 26 -85q0 -49 -35 -96q-19 -26 -19 -71h-89z" />
<glyph unicode="&#x1eed;" horiz-adv-x="508" d="M532 1271v-215l-77 -99v-957h-160v61q-24 -75 -107 -75q-105 0 -134 117q-11 47 -11 202v914h174v-1006q0 -82 33 -82q29 0 29 43v6q2 18 2 33v1006h77v52h174zM207 1305v8q0 38 12.5 58.5t24.5 40.5q10 15 10 39v24q0 29 -28 29t-28 -29v-33h-75v20q0 38 15 70 q30 64 93 64t93 -39q26 -33 26 -85q0 -49 -35 -96q-19 -26 -19 -71h-89z" />
<glyph unicode="&#x1eee;" horiz-adv-x="561" d="M597 1456v-215l-85 -110v-799q0 -167 -35 -241q-51 -109 -196 -109q-146 0 -198 108q-34 73 -34 242v1067h193v-1141q0 -104 39 -104q38 0 38 104v1141h104v57h174zM358 1669h84v-49q0 -113 -76 -113q-12 0 -20 2l-103 25q-3 0 -6 1l-4 1q-37 0 -37 -43h-86v49 q0 111 78 111q3 0 10 -1t10 -1l105 -23q2 0 5 -1t5 -1q35 0 35 43z" />
<glyph unicode="&#x1eef;" horiz-adv-x="508" d="M532 1271v-215l-77 -99v-957h-160v61q-24 -75 -107 -75q-105 0 -134 117q-11 47 -11 202v914h174v-1006q0 -82 33 -82q29 0 29 43v6q2 18 2 33v1006h77v52h174zM326 1491h84v-49q0 -113 -76 -113q-12 0 -20 2l-103 25q-3 0 -6 1l-4 1q-37 0 -37 -43h-86v49q0 111 78 111 q3 0 10 -1t10 -1l105 -23q2 0 5 -1t5 -1q35 0 35 43z" />
<glyph unicode="&#x1ef0;" horiz-adv-x="561" d="M597 1456v-215l-85 -110v-799q0 -167 -35 -241q-51 -109 -196 -109q-146 0 -198 108q-34 73 -34 242v1067h193v-1141q0 -104 39 -104q38 0 38 104v1141h104v57h174zM189 -133h188v-223h-188v223z" />
<glyph unicode="&#x1ef1;" horiz-adv-x="508" d="M532 1271v-215l-77 -99v-957h-160v61q-24 -75 -107 -75q-105 0 -134 117q-11 47 -11 202v914h174v-1006q0 -82 33 -82q29 0 29 43v6q2 18 2 33v1006h77v52h174zM156 -133h188v-223h-188v223z" />
<glyph unicode="&#x1ef2;" d="M149 0v481q-132 350 -133 918h188v-125q0 -424 39 -557q39 154 39 561v121h190v-70q0 -466 -133 -848v-481h-190zM98 1669h168l66 -178h-129z" />
<glyph unicode="&#x1ef3;" d="M39 1219h174v-678q0 -256 31 -375q30 124 30 375v678h177v-562q0 -200 -31 -393q-42 -265 -127 -364q-35 -41 -131 -41h-113v116h19q61 0 86 27q-115 252 -115 655v562zM98 1491h168l66 -178h-129z" />
<glyph unicode="&#x1ef4;" d="M149 0v481q-132 350 -133 918h188v-125q0 -424 39 -557q39 154 39 561v121h190v-70q0 -466 -133 -848v-481h-190zM153 -133h188v-223h-188v223z" />
<glyph unicode="&#x1ef5;" d="M39 1219h174v-678q0 -256 31 -375q30 124 30 375v678h177v-562q0 -200 -31 -393q-42 -265 -127 -364q-35 -41 -131 -41h-113v116h19q61 0 86 27q-115 252 -115 655v562zM270 -133h188v-223h-188v223z" />
<glyph unicode="&#x1ef6;" d="M149 0v481q-132 350 -133 918h188v-125q0 -424 39 -557q39 154 39 561v121h190v-70q0 -466 -133 -848v-481h-190zM208 1483v8q0 38 12.5 58.5t24.5 40.5q10 15 10 39v24q0 29 -28 29t-28 -29v-33h-75v20q0 38 15 70q30 64 93 64t93 -39q26 -33 26 -85q0 -49 -35 -96 q-19 -26 -19 -71h-89z" />
<glyph unicode="&#x1ef7;" d="M39 1219h174v-678q0 -256 31 -375q30 124 30 375v678h177v-562q0 -200 -31 -393q-42 -265 -127 -364q-35 -41 -131 -41h-113v116h19q61 0 86 27q-115 252 -115 655v562zM207 1305v8q0 38 12.5 58.5t24.5 40.5q10 15 10 39v24q0 29 -28 29t-28 -29v-33h-75v20q0 38 15 70 q30 64 93 64t93 -39q26 -33 26 -85q0 -49 -35 -96q-19 -26 -19 -71h-89z" />
<glyph unicode="&#x1ef8;" d="M149 0v481q-132 350 -133 918h188v-125q0 -424 39 -557q39 154 39 561v121h190v-70q0 -466 -133 -848v-481h-190zM327 1669h84v-49q0 -113 -76 -113q-12 0 -20 2l-103 25q-3 0 -6 1l-4 1q-37 0 -37 -43h-86v49q0 111 78 111q3 0 10 -1t10 -1l105 -23q2 0 5 -1t5 -1 q35 0 35 43z" />
<glyph unicode="&#x1ef9;" d="M39 1219h174v-678q0 -256 31 -375q30 124 30 375v678h177v-562q0 -200 -31 -393q-42 -265 -127 -364q-35 -41 -131 -41h-113v116h19q61 0 86 27q-115 252 -115 655v562zM326 1491h84v-49q0 -113 -76 -113q-12 0 -20 2l-103 25q-3 0 -6 1l-4 1q-37 0 -37 -43h-86v49 q0 111 78 111q3 0 10 -1t10 -1l105 -23q2 0 5 -1t5 -1q35 0 35 43z" />
<glyph unicode="&#x2013;" horiz-adv-x="1024" d="M0 567v113h1024v-113h-1024z" />
<glyph unicode="&#x2014;" horiz-adv-x="2048" d="M2048 680v-113h-2048v113h2048z" />
<glyph unicode="&#x2018;" horiz-adv-x="252" d="M37 1073v213l102 131l47 -28l-47 -103h74v-213h-176z" />
<glyph unicode="&#x2019;" horiz-adv-x="252" d="M213 1399v-215l-100 -129l-50 26l50 103h-74v215h174z" />
<glyph unicode="&#x201a;" horiz-adv-x="252" d="M213 213v-213l-100 -131l-50 29l50 102h-74v213h174z" />
<glyph unicode="&#x201c;" horiz-adv-x="502" d="M37 1073v213l102 131l47 -28l-47 -103h74v-213h-176zM289 1073v213l102 131l47 -28l-47 -103h74v-213h-176z" />
<glyph unicode="&#x201d;" horiz-adv-x="502" d="M465 1399v-215l-103 -129l-47 26l47 103h-73v215h176zM213 1399v-215l-100 -129l-50 26l50 103h-74v215h174z" />
<glyph unicode="&#x201e;" horiz-adv-x="502" d="M465 213v-213l-103 -131l-47 29l47 102h-73v213h176zM213 213v-213l-100 -131l-50 29l50 102h-74v213h174z" />
<glyph unicode="&#x2020;" horiz-adv-x="545" d="M342 1399v-344h205v-140h-205v-1058h-139v1058h-205v140h205v344h139z" />
<glyph unicode="&#x2021;" horiz-adv-x="545" d="M342 1399v-344h205v-140h-205v-319h205v-139h-205v-600h-139v600h-205v139h205v319h-205v140h205v344h139z" />
<glyph unicode="&#x2022;" horiz-adv-x="1208" d="M307 762q0 124 86.5 209.5t210.5 85.5q123 0 209 -86t86 -209t-87 -210t-210 -87q-124 0 -209.5 86.5t-85.5 210.5z" />
<glyph unicode="&#x2026;" horiz-adv-x="2048" d="M248 223h188v-223h-188v223zM930 223h188v-223h-188v223zM1614 223h188v-223h-188v223z" />
<glyph unicode="&#x2030;" horiz-adv-x="1018" d="M172 0l270 1370h97l-271 -1370h-96zM840 123q0 -55 22 -55q23 0 23 30v482q0 55 -23 55q-22 0 -22 -27v-485zM733 541q0 88 21 128q29 54 108 54q81 0 110 -53q21 -39 21 -129v-377q0 -90 -21 -129q-29 -53 -110 -53q-80 0 -108 54q-21 39 -21 128v377zM535 109 q0 -41 20 -41q23 0 23 30v482q0 55 -23 55q-20 0 -20 -27v-499zM426 541q0 88 22 128q29 54 109 54t109 -54q20 -38 20 -128v-377q0 -90 -20 -128q-29 -54 -109 -54t-109 54q-22 40 -22 128v377zM133 776q0 -41 21 -41q22 0 22 31v481q0 56 -22 56q-21 -2 -21 -29v-498z M25 1206q0 90 20 129q29 54 109 54t109 -54q22 -40 22 -129v-377q0 -89 -22 -128q-29 -54 -109 -54t-108 54q-21 39 -21 128v377z" />
<glyph unicode="&#x2039;" horiz-adv-x="317" d="M272 164l-239 301v291l239 299v-256l-147 -191l147 -182v-262z" />
<glyph unicode="&#x203a;" horiz-adv-x="317" d="M45 1055l240 -301v-291l-240 -299v256l148 188l-148 185v262z" />
<glyph unicode="&#x2044;" horiz-adv-x="190" d="M287 1389h92l-477 -1407h-92z" />
<glyph unicode="&#x20a3;" horiz-adv-x="934" d="M57 0v1399h381v-170h-192v-350h182v-170h-182v-709h-189zM740 735v307q0 45 -31 45t-31 -65v-1022h-176v1219h162v-62q21 76 106 76q105 0 134 -118q12 -50 12 -202v-178h-176z" />
<glyph unicode="&#x20ab;" horiz-adv-x="355" d="M191 1299h-83v55h83v47h121v-47h51v-55h-51v-858h-111v42q-23 -51 -76 -51q-72 0 -92 80q-8 33 -8 138v393q0 105 8 138q20 80 92 80q51 0 66 -35v73zM149 585q0 -57 21 -57t21 27v569q0 35 -21 35t-21 -28v-546zM290 315v-98h-249v98h249z" />
<glyph unicode="&#x2122;" horiz-adv-x="1706" d="M963 1458l151 -385l141 385h150v-538h-98v444l-166 -444h-56l-174 444v-444h-98v538h150zM694 1458v-80h-172v-458h-108v458h-172v80h452z" />
<glyph unicode="&#x2202;" horiz-adv-x="1059" d="M756 621q30 174 30 325q0 260 -145 260q-50 0 -127 -58t-108 -58q-34 0 -59 21t-25 54q0 75 89 122q74 38 156 38q206 0 311 -194q83 -154 83 -379q0 -277 -111 -499q-140 -278 -391 -278q-157 0 -258 112q-97 108 -97 267q0 182 98 312q108 143 285 143q195 0 269 -188z M707 494q0 241 -166 241q-134 0 -201 -177q-49 -128 -49 -288q0 -239 166 -239q133 0 201 176q49 129 49 287z" />
<glyph unicode="&#x220f;" horiz-adv-x="1550" d="M156 1473h1237v-1866h-240v1661h-758v-1661h-239v1866z" />
<glyph unicode="&#x2211;" horiz-adv-x="1380" d="M55 1473h1258v-193h-959l672 -717l-694 -764h1007v-192h-1314v149l725 801l-695 739v177z" />
<glyph unicode="&#x2212;" horiz-adv-x="1706" d="M1452 682v-141h-1198v141h1198z" />
<glyph unicode="&#x2219;" horiz-adv-x="270" d="M25 688q0 44 33 78.5t77 34.5q47 0 79 -33t32 -80q0 -45 -33 -77.5t-78 -32.5q-41 0 -75.5 34.5t-34.5 75.5z" />
<glyph unicode="&#x221a;" horiz-adv-x="1305" d="M1116 1661h189v-96h-115l-594 -1606h-66l-319 883l-125 -45l-25 80l283 98l256 -709z" />
<glyph unicode="&#x221e;" horiz-adv-x="1706" d="M915 559q99 -178 267 -178q103 0 166 68t63 172q0 96 -54 163q-59 72 -153 72q-99 0 -181 -105q-48 -62 -108 -192zM793 666q-98 176 -267 176q-104 0 -166.5 -66.5t-62.5 -171.5q0 -96 54 -163q59 -72 153 -72q154 0 289 297zM864 483q-136 -262 -321 -262 q-148 0 -239 124q-83 112 -83 265q0 157 70 265q82 126 231 126q182 0 320 -264q133 269 323 269q147 0 239 -126q83 -113 83 -266q0 -157 -70 -264q-82 -125 -231 -125q-175 0 -322 258z" />
<glyph unicode="&#x222b;" horiz-adv-x="1067" d="M311 -262q106 0 120 688l3 165q9 388 55 577q93 382 349 382q73 0 124 -37q56 -41 56 -112q0 -117 -119 -117q-84 0 -110 73l-10 50q-8 37 -21 37q-107 0 -121 -619l-8 -303q-13 -365 -61 -543q-94 -350 -341 -350q-73 0 -124 37q-56 41 -56 111q0 119 129 119 q65 0 96 -57q2 -4 14 -59q9 -42 25 -42z" />
<glyph unicode="&#x2248;" horiz-adv-x="1706" d="M1530 430q-203 -141 -389 -141q-97 0 -287.5 67.5t-290.5 67.5q-157 0 -385 -158v156q215 145 387 145q105 0 300 -68.5t278 -68.5q165 0 387 156v-156zM1530 799q-204 -142 -389 -142q-97 0 -287.5 68t-290.5 68q-155 0 -385 -158v156q211 143 387 143q105 0 300 -67.5 t278 -67.5q164 0 387 155v-155z" />
<glyph unicode="&#x2260;" horiz-adv-x="1706" d="M1313 1112l-187 -235h326v-136h-416l-205 -262h621v-135h-709l-249 -317l-105 84l184 233h-319v135h408l204 262h-612v136h702l252 317z" />
<glyph unicode="&#x2264;" horiz-adv-x="1706" d="M1446 162v-139h-1184v139h1184zM1444 1059l-936 -309l936 -306v-149l-1182 395v121l1182 395v-147z" />
<glyph unicode="&#x2265;" horiz-adv-x="1706" d="M1446 162v-139h-1184v139h1184zM1446 811v-121l-1184 -395v149l938 306l-938 309v147z" />
<glyph unicode="&#x255f;" horiz-adv-x="1024" d="M500 1491h168l-105 -178h-129z" />
<glyph unicode="&#x2560;" horiz-adv-x="1024" d="M356 1491h168l66 -178h-129z" />
<glyph unicode="&#x2561;" horiz-adv-x="451" d="M150 309v41q0 220 36 348q4 13 20 62q52 156 52 272v125q0 103 -39 103t-39 -103v-170h-172v105q0 154 30 222q47 103 179 103q209 0 209 -282v-123q0 -128 -76 -350l-18 -54q-37 -108 -37 -299h-145zM127 223h188v-223h-188v223z" />
<glyph unicode="&#x2562;" horiz-adv-x="270" d="M41 223h188v-223h-188v223z" />
<glyph unicode="&#x25ca;" horiz-adv-x="1012" d="M506 1409l-385 -817l385 -825l385 825zM506 1653l500 -1061l-500 -1069l-500 1069z" />
<glyph unicode="&#x25cb;" horiz-adv-x="553" d="M315 0v268h-77v-268h-191v270q0 785 119 1129h219q121 -353 121 -1129v-270h-191zM276 1167q-41 -255 -42 -729h85q-4 277 -8 365q-8 207 -35 364z" />
<glyph unicode="&#x25cf;" horiz-adv-x="461" d="M57 0v1399h381v-170h-192v-350h182v-170h-182v-539h192v-170h-381z" />
<glyph unicode="&#x25d8;" horiz-adv-x="317" d="M61 0v1399h195v-1399h-195z" />
<glyph unicode="&#x25d9;" horiz-adv-x="553" d="M238 258q0 -104 38 -104q30 0 37 40q2 10 2 64v885q0 104 -39 104q-38 0 -38 -104v-885zM43 1065q0 169 35 242q51 110 198 110t199 -109q35 -74 35 -243v-733q0 -168 -35 -242q-52 -108 -199 -108t-198 108q-35 73 -35 242v733z" />
<glyph unicode="&#x25e6;" horiz-adv-x="561" d="M242 258q0 -104 39 -104q38 0 38 104v1141h193v-1067q0 -167 -35 -241q-51 -109 -196 -109q-146 0 -198 108q-34 73 -34 242v1067h193v-1141z" />
<glyph unicode="&#x25fc;" horiz-adv-x="1220" d="M0 1220h1220v-1220h-1220v1220z" />
<glyph unicode="&#x263a;" d="M33 883v96q0 258 207 258q204 0 204 -246q0 -2 1 -10q1 -20 1 -61v-920h-165v61q-31 -73 -103 -73q-105 0 -134 117q-11 47 -11 202v150q0 151 51 219q40 53 186 131v250q0 39 -30 39q-31 0 -31 -80v-133h-176zM209 205q0 -82 31 -82q30 0 30 41v477q-61 -37 -61 -139 v-297z" />
<glyph unicode="&#x263b;" d="M274 748v268q0 81 -30 80q-31 -1 -31 -80v-268h61zM33 979q0 258 211 258t211 -246v-387h-242v-399q0 -82 31 -82q30 0 30 43v313h181v-264q0 -233 -211 -233q-136 0 -181 96q-30 63 -30 221v680z" />
<glyph unicode="&#x263c;" horiz-adv-x="285" d="M51 1219h180v-1219h-180v1219zM51 1417h180v-157h-180v157z" />
<glyph unicode="&#x2640;" horiz-adv-x="295" d="M57 1219h181v-1219h-181v1219z" />
<glyph unicode="&#x2642;" d="M33 979q0 258 211 258t211 -246v-776q0 -233 -211 -233q-136 0 -181 96q-30 63 -30 221v680zM274 1047q0 49 -30 49q-31 0 -31 -39v-852q0 -82 31 -82q30 0 30 41v883z" />
<glyph unicode="&#x2660;" horiz-adv-x="508" d="M217 1219v-1006q0 -82 33 -82q29 0 29 43v6q2 18 2 33v1006h174v-1219h-160v61q-24 -75 -107 -75q-105 0 -134 117q-11 47 -11 202v914h174z" />
<glyph unicode="&#x2663;" d="M39 1219h174v-678q0 -256 31 -375q30 124 30 375v678h177v-562q0 -200 -31 -393q-42 -265 -127 -364q-35 -41 -131 -41h-113v116h19q61 0 86 27q-115 252 -115 655v562z" />
<glyph unicode="&#xf000;" horiz-adv-x="1618" d="M836 1216q-2 12 -2 37q0 132 101 237q96 99 230 124q2 -20 2 -62q0 -117 -94 -226q-97 -112 -213 -112h-8q-3 0 -8 1t-8 1zM1505 403q-90 -196 -152 -279q-118 -159 -257 -159q-46 0 -130 33t-124 33q-44 0 -130 -33t-128 -33q-129 0 -258 176q-213 291 -213 596 q0 211 117 348q124 146 331 146q57 0 149.5 -34t129.5 -34q32 0 124.5 35t149.5 35q216 0 359 -164q-201 -128 -201 -328q0 -233 233 -338z" />
<glyph unicode="&#xf001;" horiz-adv-x="588" d="M356 1219h181v-1219h-181v1219zM356 1417h181v-157h-181v157zM61 1249q0 92 18 124q25 44 107 44q47 0 95 -16v-127q-2 0 -5.5 1t-5.5 1q-28 0 -28 -27v-30h39v-144h-39v-1075h-181v1075h-38v144h38v30z" />
<glyph unicode="&#xf002;" horiz-adv-x="588" d="M356 1399h181v-1399h-181v1399zM61 1249q0 92 18 124q25 44 107 44q47 0 95 -16v-127q-2 0 -5.5 1t-5.5 1q-28 0 -28 -27v-30h39v-144h-39v-1075h-181v1075h-38v144h38v30z" />
<glyph d="M149 0v481q-132 350 -133 918h188v-125q0 -424 39 -557q39 154 39 561v121h190v-70q0 -466 -133 -848v-481h-190z" />
<glyph horiz-adv-x="274" />
<glyph horiz-adv-x="274" />
<glyph horiz-adv-x="370" d="M158 1309v8q0 38 12.5 58.5t24.5 40.5q10 15 10 39v24q0 29 -28 29t-28 -29v-33h-75v20q0 38 15 70q30 64 93 64t93 -39q26 -33 26 -85q0 -49 -35 -96q-19 -26 -19 -71h-89z" />
<glyph d="M164 1491h160l113 -178h-140l-53 71l-53 -71h-140zM196 1723h168l-105 -178h-129z" />
<glyph d="M164 1491h160l113 -178h-140l-53 71l-53 -71h-140zM127 1722h168l66 -178h-129z" />
<glyph d="M164 1491h160l113 -178h-140l-53 71l-53 -71h-140zM359 1486v8q0 38 12.5 58.5t24.5 40.5q10 15 10 39v24q0 29 -28 29t-28 -29v-33h-75v20q0 38 15 70q30 64 93 64t93 -39q26 -33 26 -85q0 -49 -35 -96q-19 -26 -19 -71h-89z" />
<glyph d="M164 1491h160l113 -178h-140l-53 71l-53 -71h-140zM325 1720h84v-49q0 -113 -76 -113q-12 0 -20 2l-103 25q-3 0 -6 1l-4 1q-37 0 -37 -43h-86v49q0 111 78 111q3 0 10 -1t10 -1l105 -23q2 0 5 -1t5 -1q35 0 35 43z" />
<glyph d="M50 1491l104 -1q6 -71 90 -71t90 71l104 1q-2 -176 -194 -176t-194 176zM236 1723h168l-105 -178h-129z" />
<glyph d="M50 1491l104 -1q6 -71 90 -71t90 71l104 1q-2 -176 -194 -176t-194 176zM83 1722h168l66 -178h-129z" />
<glyph d="M50 1491l104 -1q6 -71 90 -71t90 71l104 1q-2 -176 -194 -176t-194 176zM210 1486v8q0 38 12.5 58.5t24.5 40.5q10 15 10 39v24q0 29 -28 29t-28 -29v-33h-75v20q0 38 15 70q30 64 93 64t93 -39q26 -33 26 -85q0 -49 -35 -96q-19 -26 -19 -71h-89z" />
<glyph d="M50 1491l104 -1q6 -71 90 -71t90 71l104 1q-2 -176 -194 -176t-194 176zM325 1720h84v-49q0 -113 -76 -113q-12 0 -20 2l-103 25q-3 0 -6 1l-4 1q-37 0 -37 -43h-86v49q0 111 78 111q3 0 10 -1t10 -1l105 -23q2 0 5 -1t5 -1q35 0 35 43z" />
<glyph horiz-adv-x="274" />
</font>
</defs>
</svg>
